<?xml version="1.0" standalone="no"?>
<!DOCTYPE svg PUBLIC "-//W3C//DTD SVG 1.1//EN" "http://www.w3.org/Graphics/SVG/1.1/DTD/svg11.dtd" >
<svg xmlns="http://www.w3.org/2000/svg" xmlns:xlink="http://www.w3.org/1999/xlink" version="1.1">
<metadata></metadata>
<defs>
<font id="milluniumbold" horiz-adv-x="1175" >
<font-face units-per-em="2048" ascent="1638" descent="-410" />
<missing-glyph horiz-adv-x="510" />
<glyph horiz-adv-x="0" />
<glyph unicode="&#xd;" horiz-adv-x="510" />
<glyph horiz-adv-x="0" />
<glyph unicode="&#x9;" horiz-adv-x="0" />
<glyph unicode=" "  horiz-adv-x="510" />
<glyph unicode="&#x09;" horiz-adv-x="510" />
<glyph unicode="&#xa0;" horiz-adv-x="510" />
<glyph unicode="!" horiz-adv-x="557" d="M124 148q0 34 13 64t35.5 52t52 35t63.5 13t64 -13t52 -35t35 -52t13 -64t-13 -64t-35 -52t-52 -35t-64 -13t-63.5 13t-52 35t-35.5 52t-13 64zM133 1326q-1 33 10.5 62.5t32.5 51t50 34.5t62 13t62 -13t50 -34.5t33 -51t11 -62.5l-26 -770q-1 -26 -11.5 -49t-28 -40 t-41 -26.5t-49.5 -9.5t-49.5 9.5t-40.5 26.5t-27.5 40t-11.5 49z" />
<glyph unicode="&#x22;" horiz-adv-x="657" d="M11 1423q1 22 13 43q10 20 26 36q15 15 37 26q11 5 21.5 7.5t22.5 3.5q25 3 52 -5q26 -10 44 -25q10 -8 17.5 -18t14.5 -21q12 -23 15 -49q1 -5 1 -12v-15v-14.5t-1 -16.5q0 -16 -5 -41q-2 -13 -6 -27t-11 -29q-6 -15 -12.5 -29t-13.5 -27q-13 -24 -25 -44 q-12 -18 -16 -22l-11 6q-17 9 -25 29q-6 20 0 40q6 12 12 27q2 8 3.5 15.5t0.5 16.5q-4 -1 -11 -1q-4 -1 -12 -1q-30 0 -55 12q-26 12 -43 32q-19 18 -28 47q-9 27 -5 56zM358 1423q1 22 13 43q10 20 26 36q15 15 37 26q11 5 21.5 7.5t22.5 3.5q25 3 52 -5q26 -10 44 -25 q10 -8 17.5 -18t14.5 -21q12 -23 15 -49q1 -5 1 -12v-15v-14.5t-1 -16.5q0 -16 -5 -41q-2 -13 -6 -27t-11 -29q-6 -15 -12.5 -29t-13.5 -27q-13 -24 -25 -44q-12 -18 -16 -22l-11 6q-17 9 -25 29q-6 20 0 40q6 12 12 27q2 8 3.5 15.5t0.5 16.5q-4 -1 -11 -1q-4 -1 -12 -1 q-30 0 -55 12q-26 12 -43 32q-19 18 -28 47q-9 27 -5 56z" />
<glyph unicode="#" horiz-adv-x="1220" d="M61 533v46h255l49 282h-106q-26 0 -48.5 10t-39 27t-26.5 39.5t-10 48.5v48h261l55 310q4 22 15 41t27.5 33t37 21.5t43.5 7.5h76l-73 -413h193l54 310q4 22 15.5 41t27.5 33t36.5 21.5t42.5 7.5h78l-73 -413h218v-48q0 -26 -10 -48.5t-26.5 -39.5t-39.5 -27t-48 -10 h-125l-49 -282h223v-46q0 -26 -10 -48.5t-26.5 -39.5t-39.5 -26.5t-48 -9.5h-129l-71 -408h-34q-29 0 -53.5 12t-41.5 32.5t-24.5 46.5t-2.5 55l45 262h-191l-72 -408h-33q-29 0 -54 12t-42 32.5t-24.5 46.5t-2.5 55l46 262h-101q-26 0 -48.5 9.5t-39 26.5t-26.5 39.5 t-10 48.5zM497 579h192l50 282h-192z" />
<glyph unicode="$" d="M108 468h75q76 0 140.5 -39.5t103.5 -105.5q18 -30 42 -51.5t53 -30.5q19 -6 38.5 -8.5t39.5 -2.5q45 0 80 12q35 14 58 35q24 24 34 53q12 30 12 66q0 43 -11 72q-10 31 -34 56q-25 25 -63 47q-37 21 -93 41q-48 18 -91 36.5t-82 38.5q-38 20 -71.5 42.5t-61.5 48.5 q-56 53 -85 120q-31 68 -31 164q0 82 27 150q28 69 78 118q25 26 55 46t65 36t74.5 26t83.5 14v130q0 32 22.5 55t54.5 23h1q16 0 30 -6t24.5 -16.5t16.5 -25t6 -30.5v-133q83 -11 151 -47q69 -37 115 -93q47 -56 73 -135q14 -39 20 -82.5t6 -92.5h-45q-41 0 -80 10t-74 29 t-63.5 46.5t-48.5 62.5q-8 15 -17 26q-48 57 -128 57q-45 0 -75 -13q-31 -12 -52 -36q-21 -22 -30 -53q-10 -30 -10 -67q0 -38 10 -65q5 -15 13.5 -28t19.5 -26q12 -12 27.5 -23.5t35.5 -22.5q38 -22 98 -45q47 -20 89.5 -39t81.5 -39q38 -20 71 -42.5t61 -48.5 q54 -51 86 -121q30 -69 30 -163q0 -87 -28 -153q-27 -67 -77 -117q-52 -50 -122 -80q-36 -15 -75 -24t-83 -14v-116q0 -32 -23 -54.5t-55 -22.5t-54.5 22.5t-22.5 54.5v115q-82 9 -155 37q-74 30 -133 84q-59 55 -93 138q-35 85 -35 200z" />
<glyph unicode="%" horiz-adv-x="1742" d="M71 1106q0 78 29.5 146t80.5 119t119 80.5t145 29.5q78 0 146 -29.5t118.5 -80.5t80 -119t29.5 -146q0 -77 -29.5 -145t-80 -119t-118.5 -80.5t-146 -29.5q-77 0 -145 29.5t-119 80.5t-80.5 119t-29.5 145zM254 1106q0 -39 15 -74t41 -61t61 -41t74 -15q40 0 75 15t61 41 t41 61t15 74q0 40 -15 75t-41 61t-61 41t-75 15q-39 0 -74 -15t-61 -41t-41 -61t-15 -75zM446 199q2 18 12 34l682 1091q18 29 51.5 38t63.5 -8q16 -9 27 -23.5t15.5 -31t2.5 -34.5t-12 -34l-682 -1090q-18 -29 -51.5 -38.5t-63.5 7.5q-17 9 -27.5 23.5t-15 31t-2.5 34.5z M927 358q0 78 29.5 146t80 118.5t118.5 80t146 29.5t146 -29.5t118.5 -80t80 -118.5t29.5 -146t-29.5 -146t-80 -118.5t-118.5 -80t-146 -29.5t-146 29.5t-118.5 80t-80 118.5t-29.5 146zM1110 358q0 -40 15 -74.5t41 -60.5t60.5 -41t74.5 -15t74.5 15t60.5 41t41 60.5 t15 74.5t-15 74.5t-41 60.5t-60.5 41t-74.5 15t-74.5 -15t-60.5 -41t-41 -60.5t-15 -74.5z" />
<glyph unicode="&#x26;" horiz-adv-x="1344" d="M105 392q0 32 4.5 60.5t15.5 54.5q19 52 54 97q17 23 38 44.5t46 42.5q24 20 51 40.5t57 41.5q-65 85 -103 165q-37 75 -37 160q0 44 7 83.5t22 74.5q28 70 80 122q52 50 126 79q75 27 165 27q86 0 155 -27q68 -26 119 -74q48 -47 75 -109q26 -63 26 -131q0 -52 -15 -97 q-7 -23 -17 -44.5t-23 -41.5q-26 -39 -62 -75q-18 -18 -38 -34.5t-41 -31.5l-94 -67l253 -295q7 14 17 40t20 61q9 34 28.5 63t46.5 50t59.5 32.5t68.5 11.5h67q0 -137 -31 -252q-30 -116 -101 -211l41 -48q26 -30 29.5 -66.5t-10.5 -67.5t-44 -52t-70 -21q-27 0 -51.5 11 t-42.5 32l-38 43q-83 -54 -175 -80q-46 -14 -95 -20t-103 -6q-112 0 -200 30q-91 32 -151 86q-63 55 -96 132q-33 76 -33 167zM397 408q0 -40 14 -79q8 -18 17.5 -33.5t23.5 -29.5q28 -27 64 -41q37 -15 83 -15q104 0 198 59l-289 334l-21 -15q-14 -12 -25.5 -24t-20.5 -23 q-18 -23 -27 -47q-5 -11 -8 -22t-5 -22q-4 -20 -4 -42zM492 1102q0 -45 24 -91q23 -45 65 -99l77 51q32 21 52 40q22 19 32 39q13 21 17 39q4 19 4 44q0 22 -9 45q-8 21 -26 40q-8 9 -18.5 16t-22.5 13q-27 11 -57 11q-35 0 -60 -12q-28 -13 -43 -32q-19 -20 -26 -47 q-9 -27 -9 -57z" />
<glyph unicode="'" horiz-adv-x="369" d="M27 1386q3 26 15 49t30 41t41.5 29t50.5 13q31 3 59 -6.5t50 -28t36 -44t17 -55.5q2 -13 2 -31q0 -15 -1 -35.5t-6 -46.5q-5 -30 -19 -64t-29.5 -63t-29 -50t-18.5 -25l-12 6q-21 11 -28.5 33.5t0.5 45.5q6 14 12.5 30.5t5.5 36.5q-7 -1 -13 -1.5t-14 -0.5 q-33 0 -62 13.5t-49.5 36t-31 53t-6.5 64.5z" />
<glyph unicode="(" horiz-adv-x="719" d="M125 596q0 183 56 364.5t169 351.5l200 304q33 0 60 -10t44.5 -26.5t23 -37.5t-4.5 -43l-174 -379q-118 -257 -118 -524t118 -524l174 -377q10 -22 4.5 -43.5t-23 -38t-44.5 -27t-60 -10.5l-200 304q-113 170 -169 351.5t-56 364.5z" />
<glyph unicode=")" horiz-adv-x="722" d="M70.5 -348.5q-5.5 21.5 4.5 43.5l174 377q118 257 118 524t-118 524l-174 379q-10 22 -4.5 43t23 37.5t44.5 26.5t60 10l200 -304q112 -170 168.5 -351.5t56.5 -364.5t-56.5 -364.5t-168.5 -351.5l-200 -304q-33 0 -60 10.5t-44.5 27t-23 38z" />
<glyph unicode="*" horiz-adv-x="928" d="M36.5 1126.5q-2.5 24.5 5.5 49.5l21 61l309 -125l-12 220q-2 26 7.5 49t26 40.5t39 28t48.5 10.5h67l-20 -354l181 73q25 10 50 9t47.5 -11t39.5 -28.5t25 -43.5l18 -60l-319 -88l131 -166q16 -21 22 -45t2.5 -47.5t-15.5 -44.5t-33 -36l-56 -39l-181 290l-113 -175 q-14 -22 -34 -35.5t-43.5 -18t-47.5 -0.5t-45 18l-56 39l216 270l-192 55q-25 7 -44 22.5t-30.5 36.5t-14 45.5z" />
<glyph unicode="+" horiz-adv-x="1118" d="M83 716q0 26 10 49t27 40t40 27t49 10h222v250q0 26 10 48.5t27 39.5t40 27t49 10h13q26 0 48.5 -10t39.5 -27t27 -39.5t10 -48.5v-250h221q26 0 49 -10t40 -27t27 -40t10 -49t-10 -49t-27 -40t-40 -27t-49 -10h-221v-267q0 -26 -10 -48.5t-27 -39.5t-39.5 -27t-48.5 -10 h-13q-26 0 -49 10t-40 27t-27 39.5t-10 48.5v267h-222q-26 0 -49 10t-40 27t-27 40t-10 49z" />
<glyph unicode="," horiz-adv-x="500" d="M101 137q3 26 15 49t30 41t41.5 29t50.5 13q31 3 59 -6.5t50 -28t36 -44t17 -55.5q2 -13 2 -31q0 -15 -1 -35.5t-6 -46.5q-5 -30 -19 -64t-29.5 -63t-29 -50t-18.5 -25l-12 6q-21 11 -28.5 33.5t0.5 45.5q6 14 12.5 30.5t5.5 36.5q-7 -1 -13 -1.5t-14 -0.5 q-33 0 -62 13.5t-49.5 36t-31 53t-6.5 64.5z" />
<glyph unicode="-" horiz-adv-x="794" d="M116 620q0 25 9.5 47t26 38.5t38 26t46.5 9.5h341q25 0 47 -9.5t38 -26t25.5 -38.5t9.5 -47t-9.5 -46.5t-25.5 -38t-38 -26t-47 -9.5h-341q-25 0 -46.5 9.5t-38 26t-26 38t-9.5 46.5z" />
<glyph unicode="." horiz-adv-x="595" d="M126 142q0 33 11.5 61.5t33 49t51.5 32.5t67 12t67.5 -12t52 -32.5t33 -49t11.5 -61.5t-11.5 -61t-33 -48.5t-52 -32t-67.5 -11.5t-67 11.5t-51.5 32t-33 48.5t-11.5 61z" />
<glyph unicode="/" horiz-adv-x="765" d="M15 -91l471 1392q12 36 34.5 65t51.5 49.5t63.5 32t72.5 11.5h43l-472 -1392q-12 -36 -34 -65t-50.5 -49.5t-63.5 -32t-72 -11.5h-44z" />
<glyph unicode="0" d="M95 602v253q0 164 35.5 281.5t100.5 193t155 111t200 35.5t200.5 -35.5t155.5 -111t101 -193t36 -281.5v-253q0 -164 -35.5 -281.5t-100 -193.5t-155 -111.5t-200.5 -35.5t-200.5 35.5t-155.5 111.5t-101 193.5t-36 281.5zM384 564q0 -98 14 -165t40 -108.5t64 -59.5 t86 -18t86 18t63.5 59.5t39 108.5t13.5 165v332q0 97 -13.5 163t-40 106.5t-64.5 58.5t-86 18t-85.5 -18t-63.5 -58.5t-39.5 -106.5t-13.5 -163v-332z" />
<glyph unicode="1" horiz-adv-x="1131" d="M162 1288l185 67l259 96q41 15 81.5 8.5t72.5 -28.5t52 -58t20 -79v-1150q0 -33 -13 -61.5t-35.5 -49t-52.5 -31t-64 -7.5q-30 3 -55 16.5t-43 34.5t-28.5 48t-10.5 57v1007q-29 -10 -53 -19q-20 -8 -37 -14t-18 -6q-38 -12 -75.5 -8t-70.5 21t-59 45.5t-39 66.5z" />
<glyph unicode="2" d="M94 997q1 45 6 94.5t19 85.5q16 45 38.5 82t56.5 71q66 64 159 102q94 38 209 38q59 0 108.5 -7.5t94.5 -21.5t81.5 -33.5t67.5 -47.5q29 -26 52 -58.5t39 -70.5t23 -81.5t7 -91.5q0 -36 -5.5 -71t-16.5 -70q-12 -34 -28.5 -67t-37.5 -68q-20 -35 -46 -68.5t-56 -67.5 q-29 -35 -62 -71t-69 -74l-256 -271h439q39 0 72.5 -14.5t58.5 -39t39.5 -58t14.5 -71.5v-47h-824q-36 0 -67 13t-54.5 36t-36.5 53.5t-13 66.5v28l469 500q27 29 49.5 55.5t41.5 49.5q17 24 31.5 46t25.5 41q23 41 33 76q9 34 9 66q0 96 -49 151q-47 56 -140 56 q-52 0 -89 -18q-40 -19 -67 -52q-6 -8 -11 -15t-9.5 -15.5t-9.5 -20t-12 -28.5q-10 -42 -30.5 -78t-49.5 -63t-67 -43t-82 -16h-54q-3 55 -2 108z" />
<glyph unicode="3" d="M87 444q-4 59 0 116l56 -1q77 0 128 -43t78 -112q6 -15 11 -29q5 -12 10 -25t10 -21q8 -18 24 -33.5t30 -28.5q30 -25 67 -38q20 -8 41 -11t44 -3q26 0 48.5 3t43.5 11q20 7 37.5 17t32.5 22q14 14 24.5 30t18.5 33q16 40 16 83q0 56 -17 98q-17 43 -48 68q-31 26 -75 38 q-47 14 -100 14h-40q-24 0 -44.5 9t-36 24t-24.5 35.5t-9 43.5t9 43.5t24.5 35.5t36 24t44.5 9h40q56 0 96 14.5t67 40.5q53 56 53 147q0 39 -12 74q-6 17 -15.5 31.5t-20.5 27.5q-24 24 -61 38q-35 14 -88 14q-39 0 -75 -11q-34 -11 -62 -33q-27 -21 -41 -51 q-5 -8 -9.5 -19.5t-9.5 -22.5l-10 -26q-11 -40 -32 -73.5t-50 -58.5t-64.5 -39t-76.5 -14h-57q-2 62 2 124q4 53 15 111.5t35 104.5q29 54 62 91.5t66 62t63 38t52 20.5q44 14 89.5 21.5t95.5 7.5q56 0 105.5 -6t94.5 -20t84.5 -33.5t71.5 -46.5q65 -51 100 -129 q19 -39 27.5 -83.5t8.5 -95.5q0 -24 -3 -47t-11 -46q-7 -23 -18 -44.5t-25 -42.5q-14 -20 -31.5 -39t-37.5 -36q-41 -34 -95 -59q123 -43 184 -131q31 -44 45.5 -95.5t14.5 -111.5q0 -52 -9.5 -97t-29.5 -86q-39 -79 -109 -134q-66 -53 -163 -82q-48 -14 -98 -21.5 t-106 -7.5q-94 0 -181 25q-45 12 -84.5 31t-74.5 45q-35 27 -60 60.5t-43 75.5q-24 54 -35 114t-14 111z" />
<glyph unicode="4" d="M49 502l606 956h93q41 0 77 -15.5t63 -42.5t42.5 -63t15.5 -77v-708q34 0 64 -13t52 -35t35 -52t13 -64v-68h-164v-170q0 -30 -11.5 -56.5t-31 -46t-45.5 -30.5t-56 -11t-56 11t-45.5 30.5t-31 46t-11.5 56.5v170h-463q-28 0 -53 10t-44 28t-31 42t-14 52zM336 552h322 v513z" />
<glyph unicode="5" d="M103.5 460.5q-0.5 28.5 0.5 51.5q1 26 2 49h54q73 -1 129.5 -39.5t80.5 -109.5q10 -29 22 -55q11 -23 25.5 -46.5t32.5 -38.5q29 -24 63 -37t78 -13q28 0 51 5t42 16q19 10 35 24t27 32q13 18 21.5 39t14.5 46q12 48 12 106q0 29 -3.5 54.5t-10.5 49.5q-8 23 -18 43 t-24 37q-30 33 -73 51q-42 19 -104 19q-41 0 -69 -7q-27 -7 -52 -18q-22 -11 -40 -26q-17 -14 -32 -29l-80 20q-32 8 -57.5 26t-43 43.5t-26 56.5t-4.5 64l45 393q4 40 22 74.5t46.5 60t65 39.5t77.5 14h412q43 0 81 -16.5t66 -44.5t44.5 -66t16.5 -81v-30h-575l-35 -311 q7 3 16 7.5t20 9.5t23.5 9.5t27.5 7.5q26 9 61 15q17 2 34 3.5t35 1.5q103 0 186 -33q80 -32 138 -96t86 -153q31 -89 31 -205q0 -97 -31 -183q-28 -86 -90 -154q-29 -33 -67.5 -59t-84.5 -46q-93 -41 -216 -41q-91 0 -180 29q-86 27 -155 82q-35 27 -61 60.5t-49 71.5 q-10 18 -17.5 43t-12.5 50t-8 45t-3 28q0 2 -1 3h1q-2 30 -2.5 58.5z" />
<glyph unicode="6" horiz-adv-x="1174" d="M108 576v99q0 175 45 318q43 144 135 246q92 104 228 159q56 23 119 37t135 19q2 0 12 0.5t15 0.5q9 1 18.5 1h18.5h1q15 0 27.5 -0.5t22.5 -0.5q11 -1 21 -1l-1 -45q-1 -69 -43 -118t-107 -68h-1q-8 -3 -25.5 -7.5t-34.5 -9.5q-20 -5 -43 -12q-40 -12 -73.5 -28 t-60.5 -39q-28 -22 -48.5 -49t-36.5 -59q-14 -32 -23.5 -69.5t-13.5 -79.5q53 51 117 79q66 30 142 30q99 0 178 -38q80 -37 131 -101q27 -32 46.5 -69.5t33.5 -81.5q27 -87 27 -190q0 -53 -8.5 -101.5t-25.5 -94.5t-40.5 -86t-55.5 -74q-61 -69 -151 -109q-87 -40 -198 -40 q-110 0 -200 42t-152 119q-63 76 -97 183q-17 54 -25.5 113t-8.5 125zM391 525q0 -78 15 -133q8 -29 18.5 -52.5t24.5 -42.5q28 -39 64 -56q18 -10 38.5 -14.5t41.5 -4.5q46 0 83 23q35 22 61 62q25 36 38 87q6 24 9.5 49.5t3.5 52.5t-3.5 52.5t-9.5 49.5q-7 24 -16 45 t-22 40q-13 18 -28 32.5t-35 25.5q-19 10 -41.5 15.5t-48.5 5.5q-68 0 -118 -35q-50 -36 -75 -85v-117z" />
<glyph unicode="7" d="M70 1223v23q0 44 16.5 83t45.5 68t68 46t84 17h687q28 0 52.5 -10.5t43 -29t29 -43t10.5 -52.5q0 -27 -11 -54l-520 -1196q-17 -38 -51.5 -60.5t-76.5 -22.5q-38 0 -68.5 18t-48.5 46t-21 63t13 69l478 1035h-730z" />
<glyph unicode="8" d="M95 399q0 121 62 211t167 140q-93 49 -145.5 131t-52.5 188q0 99 34.5 174.5t95.5 127.5t145.5 78.5t185.5 26.5t185.5 -26.5t146 -78.5t95.5 -127.5t34 -174.5q0 -106 -53 -188t-146 -131q106 -51 168 -140.5t62 -210.5q0 -104 -37 -182t-102.5 -131t-155.5 -79.5 t-196 -26.5q-105 0 -195.5 26.5t-156.5 79.5t-103.5 131t-37.5 182zM384 420q0 -48 14.5 -86.5t41 -65.5t64 -41t84.5 -14q94 0 147.5 55t53.5 152q0 48 -14.5 87t-41 66t-64 41.5t-83.5 14.5t-83 -14.5t-63.5 -41.5t-41 -66t-14.5 -87zM416 1055q0 -87 45 -140t127 -53 t126.5 53t44.5 140q0 85 -45 136.5t-127 51.5q-81 0 -126 -50t-45 -138z" />
<glyph unicode="9" d="M101 971q0 54 8.5 102.5t25.5 95.5q18 47 42 87.5t55 75.5q66 71 154 109q45 22 95 32t105 10q114 0 202 -44q46 -20 85 -50.5t71 -68.5q63 -78 97 -187q18 -54 26.5 -114t8.5 -127v-99q0 -179 -45 -324q-23 -73 -57 -134.5t-81 -114.5q-91 -102 -230 -160 q-114 -47 -257 -57q-2 0 -12 -0.5t-15 -0.5q-11 -1 -21 -1h-18h-29t-23 1q-11 0 -20 1v45q0 35 12 65.5t32.5 54.5t48 42t60.5 27q8 2 26 7t35 10l44 11q82 26 135 69q56 44 86 110q15 32 24 70t14 80q-52 -51 -118 -79q-68 -31 -144 -31q-51 0 -96 10t-85 29 q-78 35 -133 101q-26 32 -46.5 71t-33.5 83q-28 88 -28 193zM388 974q0 -27 3 -53.5t10 -50.5q6 -24 15 -46t22 -40q24 -36 64 -58q39 -21 92 -21q69 0 119 35q26 18 44 39.5t32 47.5v117q0 80 -16 135q-8 29 -18 53t-24 43q-27 37 -65 57q-19 9 -39 14.5t-43 5.5 q-45 0 -84 -25q-36 -21 -62 -61q-13 -19 -22 -41.5t-15 -46.5q-7 -25 -10 -51.5t-3 -52.5z" />
<glyph unicode=":" horiz-adv-x="578" d="M125 142q0 33 11.5 61.5t33 49t51.5 32.5t67 12t67.5 -12t52 -32.5t33 -49t11.5 -61.5t-11.5 -61t-33 -48.5t-52 -32t-67.5 -11.5t-67 11.5t-51.5 32t-33 48.5t-11.5 61zM125 961q0 33 11.5 61.5t33 49t51.5 32.5t67 12t67.5 -12t52 -32.5t33 -49t11.5 -61.5t-11.5 -61 t-33 -48.5t-52 -32t-67.5 -11.5t-67 11.5t-51.5 32t-33 48.5t-11.5 61z" />
<glyph unicode=";" horiz-adv-x="537" d="M108 961q0 33 11.5 61.5t33 49t51.5 32.5t67 12t67.5 -12t52 -32.5t33 -49t11.5 -61.5t-11.5 -61t-33 -48.5t-52 -32t-67.5 -11.5t-67 11.5t-51.5 32t-33 48.5t-11.5 61zM123 137q3 26 15 49t30 41t41.5 29t50.5 13q31 3 59 -6.5t50 -28t36 -44t17 -55.5q2 -13 2 -31 q0 -15 -1 -35.5t-6 -46.5q-5 -30 -19 -64t-29.5 -63t-29 -50t-18.5 -25l-12 6q-21 11 -28.5 33.5t0.5 45.5q6 14 12.5 30.5t5.5 36.5q-7 -1 -13 -1.5t-14 -0.5q-33 0 -62 13.5t-49.5 36t-31 53t-6.5 64.5z" />
<glyph unicode="&#x3c;" horiz-adv-x="1042" d="M67 621q1 54 30.5 98.5t79.5 64.5l720 302l41 18l19 -44q15 -37 15.5 -76t-12 -74.5t-38 -64.5t-61.5 -46q-3 -1 -5.5 -2t-4.5 -2l-50 -21q-1 -1 -32 -11.5t-77 -27t-100 -35t-102 -35.5t-83 -29.5t-42 -14.5q5 -2 27 -9.5t53.5 -18.5t70.5 -24.5t78 -27.5 q92 -33 207 -73l50 -22q6 -2 10 -4q36 -17 61.5 -46t38 -64t12 -73.5t-15.5 -75.5l-19 -45l-41 17l-720 303q-50 21 -79.5 65t-30.5 98z" />
<glyph unicode="=" horiz-adv-x="1172" d="M129 453q0 25 9.5 47.5t26 39.5t39 26.5t47.5 9.5h690q25 0 47.5 -9.5t39 -26.5t26 -39.5t9.5 -47.5t-9.5 -47.5t-26 -39t-39 -26t-47.5 -9.5h-690q-25 0 -47.5 9.5t-39 26t-26 39t-9.5 47.5zM129 854q0 25 9.5 47.5t26 39t39 26.5t47.5 10h690q25 0 47.5 -10t39 -26.5 t26 -39t9.5 -47.5q0 -26 -9.5 -48t-26 -39t-39 -26.5t-47.5 -9.5h-690q-25 0 -47.5 9.5t-39 26.5t-26 39t-9.5 48z" />
<glyph unicode="&#x3e;" horiz-adv-x="1058" d="M92 258.5q-1 38.5 12 73.5t38.5 64t61.5 46q4 2 10 4l50 22q115 40 207 73q39 14 78 27.5t70.5 24.5t53 18.5t27.5 9.5q-7 2 -42 14.5t-83 29t-102 35.5t-100 35.5t-77 27t-32 11.5l-50 21q-2 1 -4.5 2t-5.5 2q-36 17 -61.5 46t-38.5 64.5t-12 74.5t16 76l19 44l41 -18 l720 -302q50 -20 79.5 -64.5t30.5 -98.5q-1 -54 -30.5 -98t-79.5 -65l-720 -303l-41 -17l-19 45q-15 37 -16 75.5z" />
<glyph unicode="?" horiz-adv-x="1019" d="M42 954q0 27 0.5 60.5t3 68t6.5 67.5t12 58q7 25 20 52t29 52t33 45.5t32 33.5q61 51 146 75q81 25 180 25q54 0 101 -6t89 -20t77.5 -32.5t64.5 -44.5q29 -25 51 -56t38 -68q31 -74 31 -170q0 -66 -20 -121q-22 -56 -55 -101q-17 -24 -34.5 -41.5t-40.5 -39.5 q-23 -23 -42.5 -40t-44.5 -40q-14 -14 -32 -37t-27 -37q-17 -26 -25 -59t-14 -58q-11 -45 -46 -74t-82 -29q-30 0 -54 12.5t-40.5 33.5t-25.5 49t-10 58q0 14 2 29.5t5 29.5t6 25t6 17q7 14 20 39.5t28 45.5q14 20 32.5 39t40.5 39q17 16 33 30.5t30 28.5q31 31 51 58 q21 31 33 61q12 33 12 69q0 87 -40 128q-40 43 -118 43q-16 0 -31.5 -1.5t-30.5 -8.5q-39 -17 -62.5 -50t-36.5 -71t-36.5 -68.5t-54 -52.5t-67.5 -34t-77 -12h-66zM319 140q0 33 12.5 62.5t34.5 51.5t51.5 34.5t62.5 12.5q34 0 63.5 -12.5t51.5 -34.5t34.5 -51.5 t12.5 -62.5t-12.5 -62.5t-34.5 -51.5t-51.5 -34.5t-63.5 -12.5q-33 0 -62.5 12.5t-51.5 34.5t-34.5 51.5t-12.5 62.5z" />
<glyph unicode="@" horiz-adv-x="1833" d="M61 481q5 105 24 200.5t53 185.5q32 89 78 165.5t104 142.5q116 128 277 204q81 37 171 54.5t190 17.5t187.5 -16t163.5 -48q154 -67 255 -182q51 -60 88 -130t61 -154q26 -83 36 -174t5 -192q-1 -35 -4.5 -69.5t-9.5 -67.5q-6 -35 -15.5 -68t-21.5 -65q-11 -32 -26 -61 t-32 -57q-36 -54 -85 -94q-24 -20 -51.5 -35.5t-59.5 -26.5q-63 -24 -140 -24q-45 0 -82 10t-69 28q-63 37 -96 108q-50 -71 -119 -106q-68 -37 -146 -37q-38 0 -71.5 8.5t-61.5 24.5q-59 31 -98 93q-20 29 -33.5 65t-21.5 78q-9 42 -10 89t4 99q14 131 57 236 q20 53 46.5 97t58.5 82q31 41 67 67t75 49q41 24 84.5 38.5t88.5 19.5q21 2 51 2.5t64 -1t68 -4.5t62.5 -6.5t48.5 -7.5t25 -7l-62 -694q-4 -26 -3 -46.5t4 -36.5q5 -17 10.5 -29.5t13.5 -21.5q17 -18 38 -26q24 -6 44 -6q52 0 90 31q39 29 70 83q15 28 26 59t21 66 q8 37 13 76t7 82q4 85 -2.5 159.5t-23.5 143.5q-33 137 -109 232q-77 97 -198 149q-119 52 -287 52q-78 0 -147.5 -14.5t-132.5 -45.5q-127 -62 -213 -169q-91 -107 -140 -255q-26 -74 -40 -153.5t-19 -166.5q-8 -186 30 -327q20 -70 48.5 -129t69.5 -107q40 -48 90 -84 t111 -60q120 -48 278 -48q22 0 44.5 0.5t45.5 4.5q23 3 57 8.5t72 14.5q25 6 49 1.5t45 -17t36 -32t22 -44.5l5 -24q-34 -23 -83 -40q-23 -9 -46.5 -16t-48.5 -12q-26 -6 -51.5 -10t-51.5 -7q-27 -3 -51.5 -4t-48.5 -1q-203 0 -359 61q-157 61 -263 179q-104 116 -157 292 q-52 172 -43 401zM731 447q-12 -134 23 -204q34 -69 112 -69q20 0 40 7q21 7 45 26q12 11 23 23.5t21 28.5q11 16 21.5 37t19.5 47l42 482q-9 3 -18.5 5.5t-20.5 4.5q-10 2 -21 3t-22 1q-116 0 -182 -101q-65 -100 -83 -291z" />
<glyph unicode="A" horiz-adv-x="1330" d="M1 35h1h-1l479 1294q22 58 72 92.5t111 34.5q62 0 111.5 -34.5t71.5 -92.5l484 -1292h-1v-1h1l-58 -22q-38 -14 -77 -15h-7q-35 0 -68 9q-46 12 -80.5 45t-50.5 78l-69 198h-512l-68 -202q-14 -42 -45 -73t-73 -45q-36 -12 -77 -12q-2 1 -3 1q-42 0 -83 15zM487 566h355 l-179 531z" />
<glyph unicode="B" horiz-adv-x="1307" d="M115 193v1071q0 40 15.5 76t41.5 62t61.5 41.5t76.5 15.5h317q125 0 228 -23q101 -26 170 -74q71 -50 107 -125q18 -38 27.5 -82.5t9.5 -95.5q0 -25 -3.5 -49t-9.5 -48q-7 -23 -16 -44.5t-23 -41.5q-24 -41 -64 -73q-20 -16 -43 -29.5t-50 -24.5q32 -8 59.5 -20t50.5 -28 q23 -17 41.5 -36t33.5 -40q29 -43 43 -94q7 -26 10.5 -51.5t3.5 -52.5q0 -212 -137 -322q-138 -108 -391 -108h-299h-30h-26q-47 0 -83 16q-56 22 -88.5 71.5t-32.5 108.5zM416 239h258q59 0 101 15q42 13 70 40q27 24 42 60q14 36 14 76q0 49 -13 84q-12 37 -37 65 q-26 26 -67 41q-42 14 -98 14h-270v-395zM416 847h223q115 1 172 48q56 47 56 134q0 99 -58 142q-56 44 -182 44h-211v-368z" />
<glyph unicode="C" horiz-adv-x="1340" d="M70 685v47v48q0 163 43 295q22 66 53 121t70 102q79 93 194 140q109 50 252 50q137 0 242 -39t179 -107q38 -35 67 -76.5t49 -89.5q10 -24 21 -51t19 -64t12 -85q2 -24 2 -53t-2 -62h-65q-50 0 -94.5 17t-79.5 46q-30 25 -50 58.5t-29 71.5q-2 8 -3.5 16t-3.5 15 q-18 50 -51 85q-34 34 -86 52q-54 18 -127 18q-155 0 -230 -112q-74 -111 -74 -346v-50v-50q0 -235 74 -345q75 -112 230 -112q36 0 68 4t59 13q53 18 86 53q33 36 51 84q2 8 3.5 15.5t3.5 15.5q9 38 29 72t50 59q35 29 79.5 45.5t94.5 16.5h65q2 -33 2 -61q0 -30 -2 -54 q-4 -48 -12 -84.5t-19 -63.5t-21 -51q-20 -49 -49 -90t-67 -75q-72 -69 -179 -109q-53 -19 -113.5 -29t-128.5 -10q-140 0 -252 50q-115 49 -194 141q-39 46 -70 102t-53 122t-32.5 139.5t-10.5 154.5z" />
<glyph unicode="D" horiz-adv-x="1313" d="M114 185v1084q0 38 14.5 72t39.5 59t59 39.5t72 14.5h263q73 0 140 -13t129 -38q61 -26 113 -60.5t96 -81.5q87 -88 137 -219q25 -64 36.5 -134.5t11.5 -148.5v-67q0 -78 -11.5 -148t-36.5 -134q-50 -129 -137 -219q-45 -45 -97 -80.5t-114 -60.5q-124 -50 -271 -50h-259 q-38 0 -72 14.5t-59 39.5t-39.5 59t-14.5 72zM414 241h144q178 0 271 117t93 334v69q0 221 -92 336q-94 115 -268 115h-148v-971z" />
<glyph unicode="E" horiz-adv-x="1128" d="M94 210v1033q0 43 16.5 81.5t45 67t66.5 45t82 16.5h762v-52q0 -36 -11 -69q-19 -55 -67 -88t-106 -33h-488v-347h457q25 0 47 -9.5t38 -26t25 -39t8 -47.5q-1 -24 -11.5 -44.5t-27 -35.5t-37.5 -23.5t-45 -8.5h-454v-390h488q31 0 60.5 -10t53.5 -28t41 -43.5t24 -56.5 q6 -26 6 -50v-50l1 -2h-764q-44 0 -82 16.5t-66.5 45t-45 66.5t-16.5 82z" />
<glyph unicode="F" horiz-adv-x="1124" d="M104 150v1100q0 44 17 83t46 68t67.5 46t82.5 17h740v-53q0 -36 -11 -69q-20 -56 -68.5 -89.5t-107.5 -33.5h-464v-378h578v-51q0 -19 -2.5 -36.5t-7.5 -34.5q-20 -56 -68.5 -89t-107.5 -33h-392v-447q0 -31 -12 -58.5t-32.5 -47.5t-48.5 -32t-59 -12t-58.5 12t-47.5 32 t-32 47.5t-12 58.5z" />
<glyph unicode="G" horiz-adv-x="1369" d="M84 701v86q0 167 44 301q22 66 52 121t71 100q78 88 192 137q115 47 252 47q140 0 245 -35q53 -18 95.5 -43t77.5 -57q70 -64 109 -153q1 -1 1 -3h1q13 -34 25 -79.5t14 -113.5v-1q1 -20 1 -41t-2 -45h-65q-49 0 -93 16t-78 45q-30 25 -48 58t-29 71q-4 12 -11 26 q-3 5 -6.5 10t-6.5 10q-11 12 -23 23t-21 20q-14 11 -29.5 18.5t-32.5 14.5q-49 17 -115 17q-154 0 -235 -116q-79 -116 -79 -346v-88q0 -230 86 -346q88 -117 256 -117q56 0 94 7q40 8 68 18q14 5 26 10.5t22 12.5q9 6 17 12t14 12v251h-274v24q0 41 15.5 77t42.5 62.5 t62.5 42t76.5 15.5h376v-581q-12 -16 -29.5 -32.5t-40.5 -34.5t-51 -34t-63 -31q-33 -16 -73 -28.5t-87 -23.5q-47 -10 -99.5 -15t-112.5 -5q-142 0 -258 46q-58 24 -108 57.5t-92 79.5q-81 88 -128 221q-46 133 -46 300z" />
<glyph unicode="H" horiz-adv-x="1447" d="M131 0v1453h83q45 0 84 -17t68.5 -46.5t46.5 -68.5t17 -84v-372h585v372q0 45 17 84t46 68.5t68.5 46.5t84.5 17h83v-1453h-83q-45 0 -84.5 17t-68.5 46.5t-46 68.5t-17 84v406h-585v-406q0 -45 -17 -84t-46.5 -68.5t-68.5 -46.5t-84 -17h-83z" />
<glyph unicode="I" horiz-adv-x="544" d="M136 134v39v191v883q0 43 16.5 81.5t45 67t67 45t82.5 16.5h57v-1093v-191v-39q0 -28 -10.5 -52.5t-28.5 -42.5t-42.5 -28.5t-52.5 -10.5t-52.5 10.5t-42.5 28.5t-28.5 42.5t-10.5 52.5z" />
<glyph unicode="J" horiz-adv-x="1130" d="M52 307q-3 19 -3 38q0 29 7 59q10 51 37 89q29 39 63.5 57.5t87.5 18.5h84v-143q1 -45 12 -78q14 -41 37 -64q24 -24 58 -35q33 -10 78 -10q83 0 135 58q51 58 51 167v998h83q44 0 83 -16.5t68 -45.5t46 -68t17 -84v-784q0 -55 -9.5 -103t-27.5 -92q-35 -83 -101 -146 q-66 -62 -153 -91q-91 -32 -192 -32q-107 0 -195 27q-89 27 -153 81q-23 20 -42.5 44.5t-34 51t-24 53t-12.5 50.5z" />
<glyph unicode="K" horiz-adv-x="1264" d="M117 149v1303h81q44 0 82.5 -16t68 -44.5t47 -66.5t19.5 -81l1 -1v-450l502 659v-1v1v-1l40 -30q30 -23 50.5 -54t30.5 -65q9 -31 9 -65v-7q-1 -37 -13 -71q-5 -16 -12.5 -31.5t-19.5 -29.5l-232 -292l485 -737l-42 -28q-39 -27 -84 -37q-27 -6 -53 -5q-18 1 -36 3 q-44 6 -83.5 28.5t-69.5 59.5l-316 492l-156 -168v-265q0 -31 -12 -58.5t-32 -47.5t-47 -32t-58 -12t-58.5 12t-47.5 32t-32 47.5t-12 58.5z" />
<glyph unicode="L" horiz-adv-x="1110" d="M111 181v1279h93q43 0 80.5 -16.5t66 -45t45 -66t16.5 -80.5v-1011h431q43 0 80.5 -16t65.5 -44t44.5 -65.5t16.5 -80.5v-35h-759q-37 0 -70 14t-57.5 39t-38.5 57.5t-14 70.5z" />
<glyph unicode="M" horiz-adv-x="1794" d="M133 -3v1466h134q58 0 112.5 -18t100.5 -50t80.5 -77.5t54.5 -100.5l290 -817l287 816q20 55 55 101t80.5 78t100 50t113.5 18h135v-1466h-63q-50 0 -93.5 18.5t-76 51t-51.5 76t-19 93.5l30 854l-360 -995q-17 -45 -54.5 -71.5t-84.5 -26.5t-85 26.5t-55 71.5l-359 994 l31 -853q0 -50 -19 -93.5t-51.5 -76t-76.5 -51t-93 -18.5h-63z" />
<glyph unicode="N" horiz-adv-x="1416" d="M106 0v1458h100q47 0 91.5 -12t83.5 -34t72.5 -53.5t57.5 -71.5l482 -790v702q0 53 20 100t55.5 82.5t82.5 56t101 20.5h40v-1458h-100q-47 0 -91.5 12t-83.5 34t-72.5 53.5t-57.5 71.5l-481 788v-699q0 -54 -20 -101.5t-55.5 -82.5t-82.5 -55.5t-101 -20.5h-41z" />
<glyph unicode="O" horiz-adv-x="1414" d="M86 695v64q0 166 45.5 299t127.5 226t196 142.5t251 49.5t251 -49.5t196 -142.5t127.5 -226t45.5 -299v-64q0 -167 -45 -299.5t-126.5 -224.5t-195.5 -141.5t-251 -49.5t-251 49.5t-196.5 141.5t-128.5 224.5t-46 299.5zM390 695q0 -114 21.5 -201.5t62 -147t99.5 -90 t135 -30.5q152 0 233 120t81 349v66q0 229 -82 348t-234 119t-234 -119t-82 -348v-66z" />
<glyph unicode="P" horiz-adv-x="1300" d="M94 149v1082q0 46 17.5 86.5t47.5 70.5t70.5 47.5t86.5 17.5h345q64 0 121 -9.5t108 -26.5q51 -18 94 -43.5t79 -57.5q69 -63 106 -152q37 -87 37 -193t-37 -189q-18 -44 -44.5 -80t-61.5 -66q-36 -29 -79 -52t-94 -40q-101 -33 -229 -33h-268v-362q0 -31 -12 -58 t-32 -47.5t-47.5 -32t-58.5 -11.5t-58 11.5t-47.5 32t-32 47.5t-11.5 58zM393 755h268q32 0 59.5 3.5t50.5 11.5q48 17 76 45t43 68q14 40 14 87q0 46 -14 90q-16 45 -43 77q-31 34 -76 53q-23 11 -50.5 15.5t-59.5 4.5h-268v-455z" />
<glyph unicode="Q" horiz-adv-x="1414" d="M98 697v64q0 164 45 298q47 133 127 225q42 46 90.5 81.5t105.5 59.5q114 50 249 50q136 0 250 -50q57 -24 105.5 -59.5t90.5 -81.5q81 -93 126 -225q46 -132 46 -298v-64q0 -203 -66 -353q-66 -149 -182 -240l241 -189l-57 -50q-29 -26 -64 -39.5t-71 -13.5q-2 -1 -3 -1 l-69 11q-36 12 -66 36l-169 136q-53 -9 -110 -9q-135 0 -250 50q-57 24 -105 59.5t-90 81.5q-84 93 -128 223q-46 131 -46 298zM401 697q0 -113 21 -200q23 -89 62 -147q41 -59 99 -89q58 -31 134 -31q152 0 232 120q81 118 81 347v66q0 228 -82 346q-81 119 -233 119 q-150 0 -233 -119q-81 -119 -81 -346v-66z" />
<glyph unicode="R" horiz-adv-x="1256" d="M116 151v1110q0 42 16 78.5t43.5 63.5t64 43t78.5 16h342q64 0 121 -7t108 -22q100 -28 169 -84q35 -28 61.5 -62.5t45.5 -76.5q37 -80 37 -191q0 -78 -17 -144q-10 -32 -23 -60t-30 -54q-35 -50 -82 -87q-24 -19 -51.5 -35t-57.5 -30l295 -557l-43 -22q-29 -16 -63 -24 q-26 -6 -53 -6h-14q-64 5 -117 41t-83 93l-204 399h-240v-386q0 -32 -12.5 -59.5t-34 -48t-50 -32t-60.5 -10.5q-31 1 -57.5 14t-46 34t-31 48.5t-11.5 57.5zM419 778h242q61 0 105 16q22 7 41 18t34 25q14 15 25.5 32t19.5 37q14 42 14 89q0 105 -58 164q-30 29 -75 44 t-107 15h-241v-440z" />
<glyph unicode="S" horiz-adv-x="1259" d="M65 564h67q61 0 112 -24t85 -66q5 -6 10.5 -17t11.5 -24.5t11 -28.5t9 -28q2 -8 4 -13q1 -2 2 -5l2 -6q1 -1 1 -1.5t1 -1.5q2 -3 2.5 -5.5t2.5 -5.5q4 -6 5 -9l2 -2v-1q20 -32 47 -52q37 -29 90 -42q26 -6 56 -9.5t62 -3.5q59 0 101 13q44 13 70 34q29 23 42 52 q13 30 13 66q0 40 -11 68q-11 30 -42 57q-33 27 -87 50q-28 13 -63 26t-80 27q-101 32 -188 72q-89 41 -154 94q-34 27 -59.5 58.5t-45.5 66.5q-39 72 -39 166q0 89 40 166q39 76 111 128q72 54 169 82q97 30 216 30q123 0 219 -34q98 -33 169 -93q69 -60 108 -142 q6 -14 11 -28.5t9 -30.5q6 -21 9 -41.5t5 -48.5v-2v-34l1 -113h-67q-61 0 -112 24t-85 66q-5 6 -11 17t-11.5 24.5t-11 28.5t-8.5 28q0 1 -2.5 7l-5 12t-5 11.5t-3.5 7.5q-1 3 -5 9q-6 9 -13 18t-15 17q-16 14 -34 24.5t-41 18.5t-49 12t-57 4q-57 0 -102 -14 q-43 -12 -72 -35q-28 -23 -43 -54q-14 -29 -14 -66q0 -72 73 -120q37 -25 90 -47t125 -44q120 -36 209 -81q90 -45 150 -102q61 -56 92 -128q15 -35 23 -75t8 -85q0 -95 -38 -171t-106 -126t-166 -79q-98 -27 -217 -27q-72 0 -144 12q-70 13 -137 39q-65 26 -121 65 q-55 39 -97 91q-21 27 -37 57t-28 64q-1 4 -5 14v1q-6 21 -8.5 41.5t-4.5 47.5v2v34v8z" />
<glyph unicode="T" horiz-adv-x="1267" d="M40 1217v45q0 41 15.5 77t42.5 63t63 42.5t77 15.5h991v-46q0 -41 -15.5 -77t-42 -62.5t-62.5 -42t-77 -15.5h-250v-1066q0 -32 -12 -59.5t-32 -47.5t-47.5 -32t-58.5 -12t-58.5 12t-48 32t-32.5 47.5t-12 59.5v1066h-441z" />
<glyph unicode="U" horiz-adv-x="1348" d="M127 509v950h37q54 0 101 -20.5t82.5 -56t55.5 -82.5t20 -100v-691q0 -142 68 -206q68 -65 187 -65q121 0 188 65q66 64 66 206v691q0 53 20.5 100t55.5 82.5t82 56t101 20.5h39v-950q0 -124 -42 -220q-41 -95 -114 -159q-37 -32 -80.5 -56.5t-94.5 -41.5 q-51 -16 -106 -24t-115 -8q-118 0 -222 32q-102 35 -174 98q-37 32 -65.5 71.5t-48.5 87.5q-41 97 -41 220z" />
<glyph unicode="V" horiz-adv-x="1292" d="M0 1442l77 15q24 4 48 4q25 -1 50 -5q48 -10 88.5 -34t70.5 -62t45 -87l258 -859l260 864q14 48 43.5 85.5t69 62t86.5 34.5q26 5 52 5q22 0 44 -4l85 -14l-458 -1314q-21 -60 -71 -95.5t-112 -35.5q-63 0 -113 36t-70 95z" />
<glyph unicode="W" horiz-adv-x="1791" d="M40 1436l61 15q24 5 48 5q21 0 41 -4q44 -8 79.5 -31.5t60.5 -59.5t34 -81l168 -861l211 902q6 27 20 49t34.5 38.5t45.5 25.5t52 9q28 0 53.5 -9t46 -25.5t35 -38.5t20.5 -49l208 -903l165 862q8 45 33 81t61 59.5t79 31.5q20 4 40 4q24 0 48 -5l63 -14l-285 -1289 q-8 -32 -25 -59t-41 -46.5t-54.5 -30.5t-63.5 -11t-62.5 10.5t-54 29.5t-42 45.5t-25.5 58.5l-199 820l-199 -820q-8 -32 -25.5 -58.5t-42 -45.5t-54 -29.5t-62.5 -10.5t-63 11t-54.5 30.5t-41.5 46.5t-24 59z" />
<glyph unicode="X" horiz-adv-x="1275" d="M44 65l13 22l380 641l-393 663l69 38q39 22 83 27q13 2 27 2q30 0 58 -8q41 -12 75.5 -38.5t57.5 -66.5v-1l216 -393l217 394q22 40 57 66.5t76 38.5q29 8 58 8q12 0 26 -2q44 -5 84 -27l69 -38l-395 -663l395 -663l-69 -38q-40 -23 -84 -27q-12 -1 -24 -1q-31 1 -60 9 q-41 12 -76 38t-57 66l-1 1l-216 392l-216 -392v-1q-23 -40 -58 -66q-34 -26 -75 -38q-29 -8 -60 -9q-13 -1 -25 1q-44 4 -83 27z" />
<glyph unicode="Y" horiz-adv-x="1244" d="M15 1399l68 33q39 19 81 21h11q37 0 71 -11q38 -14 70 -41.5t52 -66.5l248 -536l249 536q19 39 51.5 66.5t71.5 41.5q33 11 69 11h11q42 -2 81 -21l69 -33l-449 -872v-375q0 -32 -12 -59.5t-32.5 -48t-48.5 -32.5t-59 -12q-32 0 -59.5 12t-48.5 32.5t-33 48t-12 59.5v375 z" />
<glyph unicode="Z" horiz-adv-x="1241" d="M66 134q0 43 23 77l699 1006h-526q-41 0 -76.5 15.5t-61.5 42t-41.5 62t-15.5 75.5v49h963q27 0 51 -10.5t42 -28.5t28.5 -42t10.5 -51q0 -20 -5.5 -39t-17.5 -35l-697 -1013h541q40 0 76 -15.5t62 -41.5t41.5 -62t15.5 -76v-47h-978q-28 0 -52.5 10.5t-42.5 28.5 t-28.5 42.5t-10.5 52.5z" />
<glyph unicode="[" horiz-adv-x="569" d="M101 -342v2036h433v-80q0 -29 -11 -55t-30.5 -45.5t-45 -31t-55.5 -11.5v-1589q30 0 55.5 -11.5t45 -31t30.5 -45.5t11 -55v-81h-433z" />
<glyph unicode="\" horiz-adv-x="864" d="M-4 1461h75q50 0 96.5 -15t85.5 -42t69.5 -65t48.5 -84l529 -1375h-76q-50 0 -96.5 14.5t-85.5 41.5t-69.5 65t-48.5 85z" />
<glyph unicode="]" horiz-adv-x="569" d="M26 -261q0 29 11 55t30.5 45.5t45 31t55.5 11.5v1589q-30 0 -55.5 11.5t-45 31t-30.5 45.5t-11 55v80h433v-2036h-433v81z" />
<glyph unicode="^" horiz-adv-x="895" d="M73 772l15 32l237 567q16 39 51 62.5t78 24.5q42 -1 76.5 -24.5t51.5 -62.5l238 -566l14 -32l-36 -16q-29 -12 -59.5 -12.5t-58 9.5t-50 30t-35.5 49l-2 4t-1 3l-17 41q-32 90 -58 163q-11 31 -21.5 61.5t-19.5 55t-15 41.5t-7 22q-2 -6 -11.5 -33.5t-23 -65t-28.5 -80.5 t-27.5 -79t-21.5 -60t-9 -25l-17 -41q-1 -1 -3 -7q-13 -29 -36 -49t-50.5 -30t-58.5 -9t-60 13z" />
<glyph unicode="_" horiz-adv-x="914" d="M1 0h911v-226h-911v226z" />
<glyph unicode="`" horiz-adv-x="677" d="M52 1536h315l198 -310h-237z" />
<glyph unicode="a" horiz-adv-x="1092" d="M98 319q0 82 30 147q17 32 39.5 59.5t53.5 49.5q32 23 69.5 40t83.5 28q45 12 98 17.5t114 5.5h126v61q0 73 -38 117q-18 23 -47.5 34t-67.5 12q-14 0 -32.5 -0.5t-32.5 -3.5q-9 -2 -23.5 -6.5t-30 -15.5t-30.5 -29.5t-25 -46.5q-26 -52 -74.5 -86.5t-109.5 -42.5 q-10 -2 -25 -2.5t-29 -0.5q-17 0 -35 1h1h-1l1 76q0 69 25.5 131t75.5 110q26 25 52 41.5t47 27.5q25 12 47 19l12 4t13 4q82 27 185 27q90 0 170 -23q78 -23 135 -70q56 -46 89 -116q15 -35 23 -75.5t8 -87.5v-725h-58q-70 0 -127.5 36t-87.5 94q-22 -23 -48 -50t-58 -44 q-65 -34 -158 -34q-76 0 -143 23q-32 13 -61 29t-52 37q-48 41 -77 100q-27 58 -27 128zM380 339q0 -52 37 -87q37 -34 102 -34q18 0 34.5 2t32.5 7q28 8 54 23q13 7 23.5 15t19.5 17q9 10 16 19.5t13 19.5v181h-116q-55 0 -97 -12q-40 -12 -67 -34q-25 -21 -39 -52 q-13 -29 -13 -65z" />
<glyph unicode="b" horiz-adv-x="1153" d="M100 1540h52q50 0 94 -19t76.5 -52t51.5 -77t19 -94v-308q49 55 114 87q32 15 69 23t79 8q100 0 180 -40q78 -40 133 -113q28 -37 48.5 -80.5t34.5 -94.5q29 -105 29 -226v-22q0 -116 -29 -218q-28 -102 -83 -174q-53 -73 -132 -115q-76 -41 -179 -41q-93 0 -159 35 q-67 34 -119 100l-5 5q-2 2 -4.5 4t-3.5 3q-29 -57 -84.5 -92.5t-123.5 -35.5h-56zM393 332q27 -54 73 -84q48 -30 117 -30q58 0 96 24q40 25 65 68q12 22 20.5 46.5t15.5 52.5q5 29 7.5 59.5t2.5 63.5v22q0 33 -2.5 64.5t-8.5 60.5q-12 58 -36 102q-27 44 -65 67 q-38 25 -97 25q-67 0 -115 -30q-46 -30 -73 -84v-427z" />
<glyph unicode="c" horiz-adv-x="1068" d="M73 525v30q0 56 7.5 107t21.5 99q30 95 90 166q61 72 150 112q91 41 211 41q45 0 87 -7t82 -21q78 -29 136 -79q59 -51 91 -120q9 -17 16 -44t11.5 -57t6 -60.5t-1.5 -54.5h-57q-69 0 -125.5 35.5t-86.5 92.5q-9 15 -18 26.5t-21 21.5q-21 20 -55 32q-33 11 -70 11 q-60 0 -101 -25q-38 -24 -60 -66t-29 -96q-4 -27 -6 -55.5t-2 -58.5v-30q0 -30 2 -58.5t6 -56.5q7 -53 29 -96q22 -41 60 -66q39 -24 101 -24q37 0 70 11q17 5 30.5 13t24.5 18q12 11 21 22t18 26q30 58 86.5 93.5t125.5 35.5h57v-1q3 -24 1.5 -54t-6 -60t-11.5 -57t-16 -45 q-32 -67 -91 -120q-59 -51 -136 -78q-78 -28 -169 -28q-120 0 -211 41q-90 40 -150 111q-60 70 -90 167q-29 96 -29 206z" />
<glyph unicode="d" horiz-adv-x="1154" d="M81 531v21q0 62 7 118t22 107q14 51 34.5 94.5t46.5 80.5q57 74 133 112q79 40 180 40q85 0 147 -31q64 -30 114 -86v307q0 50 19 94t51.5 76.5t76.5 51.5t94 19h51l-2 -1531l1 -1h-56q-68 0 -123 35.5t-84 91.5q-1 0 -12.5 -13t-30 -31t-41.5 -36.5t-47 -30.5 q-70 -35 -160 -35q-50 0 -94.5 10t-83.5 31q-39 20 -72 49t-61 65q-26 37 -46.5 80t-34.5 94q-15 51 -22 104.5t-7 113.5zM369 531q0 -33 3 -63.5t8 -59.5q11 -55 36 -99q25 -43 64 -67q38 -25 97 -25q70 0 116 31q23 14 40.5 35t31.5 47v427q-14 26 -31.5 47.5t-40.5 35.5 q-47 30 -114 30q-58 0 -97 -24q-40 -25 -65 -68q-24 -44 -36 -101q-12 -59 -12 -125v-21z" />
<glyph unicode="e" horiz-adv-x="1089" d="M68 509v38q0 60 8.5 114t26.5 104q35 101 97 172q63 71 155 112q89 40 204 40t199 -37q44 -20 80 -45.5t65 -59.5q30 -34 52 -74.5t37 -88.5q19 -63 25 -138v-51q-2 -30 -15 -56t-34 -45t-48 -30t-57 -11h-511q4 -26 11 -49t17 -43q21 -43 54 -72q30 -29 76 -46 q41 -16 98 -16q77 0 142 28q46 19 82 26q25 5 46 5q10 0 18 -1q28 -3 51 -14.5t43 -30.5l30 -31q-6 -9 -16.5 -21t-22.5 -24.5t-24 -24t-21 -19.5q-20 -17 -42 -32.5t-48 -28.5q-26 -14 -55 -24.5t-61 -18.5t-67.5 -12t-73.5 -4q-123 0 -218 40q-49 20 -90 47t-75 61 q-68 69 -102 162q-36 93 -36 199zM356 644h390v23q-1 40 -12 78q-12 34 -35 62q-23 26 -58 40q-17 8 -38.5 11.5t-44.5 3.5q-48 0 -81 -16q-17 -8 -31.5 -19t-27.5 -25q-25 -29 -40 -69q-8 -20 -13.5 -42t-8.5 -47z" />
<glyph unicode="f" horiz-adv-x="711" d="M43 868v51q0 33 12.5 63t34.5 52t51 35t62 13v75q0 91 29 163q13 36 33 65.5t45 53.5q51 49 126 73q65 24 145 27h167v-21v-30v-16q-2 -28 -13 -56.5t-28 -52.5t-39.5 -41.5t-48.5 -23.5l-9.5 -2t-22.5 -6t-27 -10t-23 -14q-43 -36 -43 -109v-75h215q0 -45 -16.5 -84 t-45.5 -68t-67.5 -45.5t-82.5 -16.5h-3l-1 -734q0 -30 -11.5 -56.5t-31 -46t-45.5 -31t-56 -11.5q-29 0 -55.5 11.5t-46 31t-31 46t-11.5 56.5l-2 734h-160z" />
<glyph unicode="g" horiz-adv-x="1169" d="M100 513v20q0 122 30 221q16 51 37 94t49 78q28 37 61.5 64t73.5 47q79 40 180 40q95 0 161 -31q32 -17 60.5 -38.5t51.5 -50.5l1 1q15 28 36.5 51.5t49 40.5t59 26.5t66.5 9.5h57v-1057q0 -109 -37 -193q-19 -43 -45 -78.5t-60 -65.5q-66 -56 -161 -88q-83 -26 -176 -29 v-1h-170q-9 0 -18 1q-8 1 -16 1t-13 1q-7 1 -13 2l-12 2q-33 5 -60.5 22t-45.5 44q-33 46 -35 106v43l348 -1q108 5 166 61q63 60 63 171v58q-48 -54 -111 -82q-65 -30 -147 -30q-100 0 -179 41q-79 40 -135 113q-54 70 -86 170q-30 100 -30 216zM385 513q0 -65 12 -122 q8 -28 17.5 -52.5t23.5 -45.5q25 -40 68 -66q40 -24 96 -24q68 0 114 26q23 14 41 31.5t31 40.5v447q-14 24 -32 42t-40 31q-45 24 -112 24q-57 0 -96 -23q-42 -24 -69 -67q-28 -43 -41 -99q-13 -55 -13 -123v-20z" />
<glyph unicode="h" horiz-adv-x="1146" d="M128 0v1531h72q44 -2 82 -21t66 -49.5t44 -70t16 -83.5v-372q26 32 57 56.5t66 42.5q72 35 158 35q77 0 142 -21q64 -23 109 -71q23 -25 40 -57t31 -70q24 -78 24 -188l-1 -662h-71q-44 2 -82 21t-66 49t-44 70t-16 84v440q0 51 -12 84q-9 32 -32 55q-22 21 -53 29 q-32 9 -71 9q-65 0 -110 -25q-44 -27 -69 -70v-522q0 -44 -16 -84t-44 -70t-66 -49t-82 -21h-72z" />
<glyph unicode="i" horiz-adv-x="486" d="M82 1356q0 16 3.5 30.5t8.5 28.5q12 26 31 47q11 9 23.5 17t26.5 13q30 10 67 10q38 0 67 -9.5t52 -30.5q43 -43 43 -106q0 -34 -13 -61q-5 -14 -13 -25t-18 -20q-10 -11 -23.5 -19t-27.5 -14q-29 -10 -67 -10q-37 0 -67 10q-14 6 -26.5 14t-23.5 19q-19 17 -31 45 q-5 14 -8.5 29t-3.5 32zM99 129q0 -30 11 -56.5t30.5 -46t45.5 -30.5t56 -11t56 11t45.5 30.5t31 46t11.5 56.5l1 725q0 46 -17.5 87t-48.5 72t-72 48.5t-87 17.5h-63v-950z" />
<glyph unicode="j" horiz-adv-x="532" d="M-207 -210h106q16 0 33 1q14 1 31.5 1.5t34.5 2.5q10 1 25.5 6t32.5 15.5t33 29t25 47.5q7 20 7 43v1140h68q46 0 87 -17.5t71.5 -48t48 -71t17.5 -86.5v-924q0 -46 -6.5 -86.5t-18.5 -76.5q-27 -71 -73 -118q-45 -48 -116 -74q-35 -12 -74 -18.5t-84 -6.5q-18 0 -35 1.5 t-35 3.5q-7 1 -14 1.5t-15 1.5q-33 7 -63 25t-50 46q-17 25 -26.5 54t-9.5 60v48zM98 1358q0 64 44 106q43 43 118 43q77 0 120 -43q44 -41 44 -106q0 -34 -11 -62q-7 -14 -14.5 -25.5t-18.5 -21.5q-22 -21 -52 -32q-31 -11 -68 -11q-36 0 -66 11q-15 6 -28 13.5t-24 18.5 q-20 20 -32 47t-12 62z" />
<glyph unicode="k" horiz-adv-x="1094" d="M139 144v53v197v1140h78q43 0 81.5 -16.5t67 -45t45 -66.5t16.5 -82v-639l57 72l230 270l101 120l35 -29q27 -23 45 -52q17 -29 25 -61q6 -24 6 -49v-16q-2 -34 -16 -65q-9 -28 -30 -56l-165 -188l209 -309l66 -98l-1 -1l107 -158l-40 -26q-36 -25 -78 -33q-24 -5 -46 -5 q-18 1 -36 3q-40 6 -76.5 26.5t-63.5 54.5l-1 -1l-224 351l-104 -105v-133h-1v-53q0 -30 -11 -56t-30.5 -45.5t-45.5 -30.5t-56 -11t-56 11t-45.5 30.5t-31 45.5t-11.5 56z" />
<glyph unicode="l" horiz-adv-x="543" d="M141 134v1182q0 46 17.5 87t48 71t71 47.5t87.5 17.5h61v-1405q0 -30 -11 -56t-30.5 -45.5t-45.5 -30.5t-55 -11t-55 11t-45.5 30.5t-31 45.5t-11.5 56z" />
<glyph unicode="m" horiz-adv-x="1753" d="M110 0v1081q47 0 93 -17q19 -7 39.5 -18.5t40.5 -28.5t38.5 -41t32.5 -55l28 38q14 16 32 32q16 14 38 29.5t51 29.5q45 21 91.5 27.5t96.5 6.5q97 0 170 -38q36 -20 64.5 -50.5t48.5 -74.5q26 39 59 68.5t72 51.5q80 43 189 43q78 0 141 -21q32 -11 59 -29t49 -41 q47 -50 69 -126q24 -78 24 -189v-678h-56q-47 0 -89 18t-73 49t-49 73t-18 89v449q0 54 -12 87q-10 32 -31 55q-22 19 -50 26q-15 4 -32 5.5t-35 1.5q-66 0 -110 -32q-46 -35 -68 -90v-296q0 -129 1 -293q0 -29 -11 -55t-30 -45.5t-45 -30.5t-55 -11q-30 0 -55.5 11 t-45 30.5t-30.5 45.5t-11 55v534q0 52 -11 88q-5 17 -13.5 30t-18.5 24q-21 19 -51 27q-15 5 -32 6.5t-35 1.5q-32 0 -56.5 -7t-47.5 -21q-21 -14 -39.5 -40.5t-31.5 -49.5v-506q0 -47 -18 -89t-49.5 -73t-73 -49t-89.5 -18h-55z" />
<glyph unicode="n" horiz-adv-x="1098" d="M95 0v1081q73 -6 130 -36q71 -39 114 -124q51 75 130 119q81 43 189 43q38 0 73.5 -5.5t67.5 -16.5q64 -21 107 -69q46 -49 70 -126q12 -39 17.5 -85.5t5.5 -103.5v-677h-55q-48 0 -89.5 18t-72.5 49t-49 73t-18 89l-1 448q0 27 -2.5 48.5t-8.5 38.5q-10 33 -31 54 q-21 19 -51 27q-28 7 -67 7q-65 0 -110 -33q-43 -33 -66 -89v-262q0 -114 1 -259q0 -43 -16.5 -81t-45.5 -66.5t-67.5 -45t-81.5 -16.5h-73z" />
<glyph unicode="o" horiz-adv-x="1158" d="M66 530v21q0 118 34 219t99 174.5t160.5 115.5t217.5 42q123 0 219 -42t161.5 -115.5t99.5 -174.5t34 -219v-21q0 -119 -34 -219.5t-99.5 -174t-160.5 -115t-218 -41.5t-218.5 41.5t-161 115t-99.5 174t-34 219.5zM355 530q0 -66 12 -124t38.5 -100.5t69 -67.5t104.5 -25 q60 0 102.5 25t69.5 67.5t39 100.5t12 124v21q0 64 -12 121.5t-39 101t-70 69t-104 25.5q-60 0 -102.5 -25.5t-69 -69t-38.5 -101t-12 -121.5v-21z" />
<glyph unicode="p" horiz-adv-x="1153" d="M103 -448l2 1249v281h55q68 0 123.5 -35t84.5 -92q1 1 8 11.5t23 26.5t40.5 35.5t59.5 37.5q34 19 73.5 27.5t84.5 8.5q100 0 178 -42q40 -20 72.5 -49t59.5 -65t48 -79.5t36 -93.5q27 -101 27 -219v-20q0 -123 -27 -225q-30 -101 -84 -174q-27 -37 -59.5 -64.5 t-72.5 -48.5q-82 -40 -179 -40q-81 0 -148 31q-63 29 -114 88v-309q0 -50 -19 -93.5t-51.5 -76t-76 -51.5t-93.5 -19h-51zM394 331q25 -55 73 -85q46 -28 113 -28q58 0 98 23q39 24 65 67q24 46 36 101q11 61 11 125v20q0 34 -3 64.5t-8 59.5q-11 56 -35 99q-25 42 -65 66 q-37 25 -96 25q-70 0 -116 -30q-48 -31 -73 -82v-425z" />
<glyph unicode="q" horiz-adv-x="1157" d="M92 534v20q0 119 28 219q14 50 35.5 94t47.5 79q27 36 59.5 65t72.5 49q78 42 179 42q45 0 84 -8.5t73 -27.5q35 -18 60 -37.5t40.5 -35.5t23 -26.5t8.5 -11.5q29 57 83.5 92t123.5 35h55v-281l2 -1249h-51q-50 0 -93.5 19t-76 51.5t-51 76t-18.5 93.5v308 q-51 -57 -115 -87q-63 -31 -147 -31q-101 0 -180 40q-78 40 -132 113q-26 37 -47.5 80.5t-35.5 93.5q-28 99 -28 225zM380 534q0 -65 11 -126q7 -29 15.5 -53.5t20.5 -46.5q27 -43 66 -67q40 -23 97 -23q68 0 113 29q47 28 74 82v427q-28 53 -74 82q-47 30 -116 30 q-58 0 -95 -25q-40 -23 -66 -66q-23 -41 -35 -100q-5 -29 -8 -59t-3 -64v-20z" />
<glyph unicode="r" horiz-adv-x="747" d="M105 135v947v-1v1h59q72 -1 129.5 -37.5t87.5 -96.5q30 60 87.5 96.5t129.5 37.5h59v-287l-5 1q-14 1 -26.5 1.5t-25.5 0.5q-42 0 -75.5 -7t-59.5 -23q-25 -14 -44.5 -33.5t-32.5 -45.5v-554q0 -30 -11 -56t-30.5 -45.5t-45 -30.5t-53.5 -11q-30 0 -56 11t-45.5 30.5 t-30.5 45.5t-11 56z" />
<glyph unicode="s" horiz-adv-x="1053" d="M77 338l1 128h57q49 0 92 -18.5t76 -50.5q35 -38 49 -93q2 -10 5 -20t7 -17q15 -30 42 -48q26 -17 61 -28q34 -9 73 -9q82 0 123 32q41 30 41 80q0 23 -9 41q-8 19 -32 34q-13 9 -29.5 16.5t-37.5 15.5q-21 7 -48.5 13.5t-59.5 14.5q-42 9 -79 20t-72 24q-34 13 -64 29.5 t-56 35.5q-24 20 -44 43t-34 49q-28 50 -28 120q0 64 28 126q31 61 83 104q55 46 134 73q80 26 177 26q106 0 185 -25q41 -14 75.5 -31.5t63.5 -40.5q57 -44 88 -107q29 -59 31 -129v-136h-60q-55 0 -100.5 22t-76.5 60q-5 5 -10.5 15t-10.5 22.5t-9.5 25.5t-7.5 25 q-5 20 -16.5 38.5t-31.5 32.5q-23 17 -51 22t-70 5q-71 0 -110 -33q-40 -31 -40 -82q0 -24 11 -41q9 -18 33 -33q11 -8 26 -15t35 -14q19 -6 42 -12t50 -11q84 -16 160 -41q37 -12 68 -28t58 -35t47.5 -42.5t35.5 -50.5q31 -56 31 -135q0 -71 -32 -129q-30 -58 -89 -102 q-29 -22 -64 -38.5t-76 -29.5q-81 -24 -183 -24q-115 0 -198 32q-42 15 -78 34.5t-65 47.5q-35 34 -58 69.5t-36 68t-18 59.5t-5 45z" />
<glyph unicode="t" horiz-adv-x="692" d="M46 891v66q0 25 10 48t27 40t40.5 27t49.5 10h16v332h58q42 0 79.5 -16t65.5 -43.5t44 -64.5t16 -79v-129h166v-65q0 -26 -10 -49t-27 -40t-40 -27t-49 -10h-40v-600q0 -30 6 -51q4 -9 8 -17t11 -13q11 -12 31 -16q4 -1 22.5 -2.5t39 -2.5t38 -1t21.5 1v-54 q0 -35 -14 -64.5t-37 -51.5q-23 -21 -54 -33q-25 -9 -51 -10q-7 0 -14 1q-25 2 -51 5t-54 8q-27 5 -48.5 19.5t-40.5 31.5q-36 35 -56 89q-11 27 -15.5 60.5t-4.5 72.5v628h-143z" />
<glyph unicode="u" horiz-adv-x="1146" d="M123 406v676h56q47 0 89 -18t73 -49t49 -72.5t18 -89.5v-447q0 -26 2.5 -48.5t8.5 -39.5q12 -34 32 -53q21 -20 50 -27q28 -7 67 -7q67 0 109 33q44 32 67 89v23t-0.5 59.5t-0.5 83.5v95v258q0 43 16.5 81.5t45 67t66.5 45t82 16.5h73v-1080q-72 6 -129 36 q-74 39 -114 124q-51 -75 -130 -119q-79 -43 -188 -43q-79 0 -141 22q-64 21 -109 69q-44 49 -68 126q-24 76 -24 189z" />
<glyph unicode="v" horiz-adv-x="987" d="M4 1047h1l-1 1h2l54 18q39 12 77 12q19 0 38 -3q55 -8 96.5 -46t55.5 -92l165 -595l164 598q14 51 52 86.5t89 46.5q25 6 50 6q38 0 76 -13l54 -18h1v-1l-41 -125h-1l-269 -795q-10 -30 -29.5 -55t-45.5 -42q-25 -16 -56 -24q-22 -5 -45 -6q-9 0 -19 1q-55 5 -97.5 41 t-60.5 89z" />
<glyph unicode="w" horiz-adv-x="1428" d="M3 1063l54 14q29 7 58 7q41 0 81 -15q41 -15 68.5 -48t35.5 -76l115 -557l164 573q12 40 42.5 68t71.5 33q25 3 49 -2.5t44 -18.5t34.5 -33t21.5 -44l165 -577l116 559q8 42 35.5 75t68.5 48q38 15 80 15q29 0 59 -7l54 -14l-241 -944q-6 -26 -20.5 -47.5t-34.5 -37.5 t-44.5 -24.5t-51.5 -8.5h-1q-51 0 -92 31t-56 80l-168 557l-168 -557q-15 -49 -56 -80t-92 -31q-27 0 -51.5 8.5t-44.5 24.5t-34.5 37.5t-20.5 47.5z" />
<glyph unicode="x" horiz-adv-x="901" d="M0 55l151 260l137 236l-277 479l53 31q32 19 67 23q12 2 24 1q22 1 44 -5q33 -8 61 -29t47 -52l1 -1v-1l143 -260l146 258q18 31 46 52t61 30q22 6 45 6q11 1 23 -1q35 -4 67 -23l53 -31h1l-278 -477l288 -494l-54 -32q-32 -18 -67 -22q-11 -1 -21 -1q-24 0 -47 6 q-33 9 -61.5 29.5t-47.5 52.5l-153 272l-154 -274h-1q-18 -31 -47 -52q-28 -22 -61 -30q-22 -6 -46 -5q-11 0 -23 1q-36 4 -66 22z" />
<glyph unicode="y" horiz-adv-x="1004" d="M6 1039l70 24q34 13 69 13q7 0 13 -1q42 -3 78 -20t65 -46.5t44 -69.5l160 -536l160 536h1q15 40 43 70t64.5 47t78.5 20h12q36 0 71 -13l68 -23l-421 -1209q-8 -20 -18 -42t-21 -45q-11 -26 -27 -48.5t-36 -42.5q-19 -21 -44 -38t-54 -32q-9 -3 -31.5 -6t-51 -5.5 t-59 -4.5t-55.5 -3h-8q-33 0 -63 14q-34 15 -57 44l-1 1q-19 25 -28 57t-9 67l-1 48h1h111h2q11 1 25 1.5t27.5 1.5t25 1.5t16.5 1.5q33 6 52 20q11 7 20 16t17 19q8 12 14 25t12 28l30 82z" />
<glyph unicode="z" horiz-adv-x="1042" d="M70 132q0 22 7 42.5t20 37.5l482 636h-327l-1 1q-35 1 -65 15t-53 37.5t-36 54t-13 65.5v61h1h739q26 0 49.5 -10t41 -27.5t27.5 -40.5t10 -49q0 -44 -26 -78l-487 -643h356q36 0 67.5 -13.5t55 -37t37 -55t13.5 -66.5v-61h-766q-27 0 -51 10.5t-42 28t-28.5 41.5 t-10.5 51z" />
<glyph unicode="{" horiz-adv-x="756" d="M29 672q0 37 21.5 68t56.5 45q3 1 7 3q37 13 60 44q11 14 19.5 30.5t13.5 36.5q5 21 7.5 43.5t2.5 48.5v215q0 82 18 159q10 38 25.5 72.5t38.5 66.5q17 26 40 48t44 39q24 19 49 37q8 4 11 6q36 22 78.5 34t83 8t75.5 -27.5t56 -72.5l20 -50q-53 4 -99 -8 q-20 -5 -40 -14.5t-38 -24t-33 -36t-24 -50.5q-8 -19 -13.5 -38.5t-8.5 -42.5q-5 -26 -6.5 -52t-1.5 -54v-215q0 -54 -11.5 -101.5t-33.5 -90.5q-17 -32 -42 -60t-59 -50q-4 -3 -7 -6.5t-5 -10.5q2 -6 5 -9.5t7 -6.5q34 -22 59 -50t42 -60q22 -44 33.5 -91.5t11.5 -100.5 v-215q0 -28 1.5 -54t6.5 -52q3 -23 8.5 -42.5t13.5 -38.5q9 -29 24 -50.5t33 -36t38 -24t40 -14.5q46 -12 99 -8l-20 -50q-21 -50 -56 -73t-75.5 -27t-83 8t-78.5 34q-3 2 -11 6q-25 16 -49 36q-21 17 -44 39.5t-40 48.5q-23 32 -38.5 66.5t-25.5 72.5q-18 76 -18 159v215 q0 26 -2.5 48.5t-7.5 43.5q-5 20 -13.5 36.5t-19.5 30.5q-23 31 -60 44q-4 2 -7 3q-35 14 -56.5 44t-21.5 68z" />
<glyph unicode="|" horiz-adv-x="518" d="M187 -193v1582q0 37 26 63.5t63 26.5q38 0 64 -26.5t26 -63.5v-1582q0 -37 -26 -63.5t-64 -26.5q-37 0 -63 26.5t-26 63.5z" />
<glyph unicode="}" horiz-adv-x="815" d="M50 -181q52 -4 99 8q19 5 39.5 14.5t38.5 24t33 36t24 50.5q8 19 13.5 38.5t8.5 42.5q5 26 6.5 52t1.5 54v215q0 53 11.5 100.5t33.5 91.5q17 32 42 60t59 50q4 3 7 6.5t5 9.5q-2 7 -5 10.5t-7 6.5q-34 22 -59 50t-42 60q-22 43 -33.5 90.5t-11.5 101.5v215q0 28 -1.5 54 t-6.5 52q-3 23 -8.5 42.5t-13.5 38.5q-9 29 -24 50.5t-33 36t-38.5 24t-39.5 14.5q-47 12 -99 8l20 50q21 49 56 72.5t75.5 27.5t83 -8t78.5 -34q3 -2 11 -6q24 -18 49 -37q20 -17 43.5 -39t40.5 -48q23 -32 38.5 -66.5t25.5 -72.5q18 -77 18 -159v-215q0 -26 2.5 -48.5 t7.5 -43.5q5 -20 13.5 -36.5t19.5 -30.5q23 -31 60 -44q4 -2 7 -3q35 -14 56.5 -45t21.5 -68q0 -38 -21.5 -68t-56.5 -44q-3 -1 -7 -3q-37 -13 -60 -44q-11 -14 -19.5 -30.5t-13.5 -36.5q-5 -21 -7.5 -43.5t-2.5 -48.5v-215q0 -83 -18 -159q-10 -38 -25.5 -72.5t-38.5 -66.5 q-17 -26 -40.5 -48.5t-43.5 -39.5q-25 -20 -49 -36q-8 -4 -11 -6q-36 -22 -78.5 -34t-83 -8t-75.5 27t-56 73z" />
<glyph unicode="~" horiz-adv-x="1328" d="M122.5 496q0.5 28 2.5 53.5t7 45.5q10 39 28 71t41 59q21 26 47.5 46t56.5 34q61 30 134 30q41 0 77.5 -8.5t70.5 -25.5q42 -19 86 -56q15 -12 30.5 -25t32.5 -29q40 -40 78 -62q37 -22 79 -22q32 0 54 13q13 8 22.5 17.5t19.5 21.5q9 11 15 22t11 29q18 50 62.5 81 t99.5 31h40q4 -26 6 -55t1.5 -57.5t-3 -54t-7.5 -45.5q-9 -38 -27 -70t-41 -59q-43 -53 -104 -81q-63 -29 -134 -29q-82 0 -148 33q-41 19 -87 56q-14 11 -29.5 24.5t-32.5 29.5q-20 20 -40 36t-38 27q-39 22 -80 22q-30 0 -53 -14q-13 -7 -23 -17t-19 -21t-15 -22.5 t-11 -29.5h-1q-18 -49 -62 -80t-99 -32h-40q-4 27 -6 56t-1.5 57z" />
<glyph unicode="&#xa8;" horiz-adv-x="956" d="M93 1365q0 27 10 50t28.5 40.5t44 27t55.5 9.5t55.5 -9.5t43.5 -27t28.5 -40.5t10.5 -50t-10.5 -50t-28.5 -40t-43.5 -26.5t-55.5 -9.5t-55.5 9.5t-44 26.5t-28.5 40t-10 50zM580 1365q0 27 10.5 50t28.5 40t43.5 27t55.5 10t55.5 -10t44 -27t29 -40t10.5 -50t-10.5 -50 t-29 -40.5t-44 -27t-55.5 -9.5t-55.5 9.5t-43.5 27t-28.5 40.5t-10.5 50z" />
<glyph unicode="&#xad;" horiz-adv-x="794" d="M116 620q0 25 9.5 47t26 38.5t38 26t46.5 9.5h341q25 0 47 -9.5t38 -26t25.5 -38.5t9.5 -47t-9.5 -46.5t-25.5 -38t-38 -26t-47 -9.5h-341q-25 0 -46.5 9.5t-38 26t-26 38t-9.5 46.5z" />
<glyph unicode="&#xb8;" horiz-adv-x="548" d="M150 -198q3 26 15 49t30 41t41.5 29t50.5 13q31 3 59 -6.5t50 -28t36 -44t17 -55.5q2 -13 2 -31q0 -15 -1 -35.5t-6 -46.5q-5 -30 -19 -64t-29.5 -63t-29 -50t-18.5 -25l-12 6q-21 11 -28.5 33.5t0.5 45.5q6 14 12.5 30.5t5.5 36.5q-7 -1 -13 -1.5t-14 -0.5 q-33 0 -62 13.5t-49.5 36t-31 53t-6.5 64.5z" />
<glyph unicode="&#xc1;" horiz-adv-x="1378" d="M1 35h1h-1l479 1294q22 58 72 92.5t111 34.5q62 0 111.5 -34.5t71.5 -92.5l484 -1292h-1v-1h1l-58 -22q-38 -14 -77 -15t-75 9q-46 12 -80.5 45t-50.5 78l-69 198h-512l-68 -202q-14 -42 -45 -73t-73 -45q-38 -12 -80 -11.5t-83 15.5zM487 566h355l-179 531zM585 1595 l86 114q16 21 31.5 41.5t27.5 37t20 26.5l8 10q18 18 40.5 27t46.5 9.5t47 -7.5t42 -25l23 -20l-86 -114q-16 -21 -31.5 -42t-28 -37t-20 -26.5l-7.5 -10.5q-18 -18 -40.5 -27t-46.5 -9.5t-47 8t-42 25.5z" />
<glyph unicode="&#xc4;" horiz-adv-x="1378" d="M1 35h1h-1l479 1294q22 58 72 92.5t111 34.5q62 0 111.5 -34.5t71.5 -92.5l484 -1292h-1v-1h1l-58 -22q-38 -14 -77 -15t-75 9q-46 12 -80.5 45t-50.5 78l-69 198h-512l-68 -202q-14 -42 -45 -73t-73 -45q-38 -12 -80 -11.5t-83 15.5zM309 1675q0 27 10 50t28.5 40.5 t44 27t55.5 9.5t55.5 -9.5t43.5 -27t28.5 -40.5t10.5 -50t-10.5 -50t-28.5 -40t-43.5 -26.5t-55.5 -9.5t-55.5 9.5t-44 26.5t-28.5 40t-10 50zM487 566h355l-179 531zM796 1675q0 27 10.5 50t28.5 40t43.5 27t55.5 10t55.5 -10t44 -27t29 -40t10.5 -50t-10.5 -50t-29 -40.5 t-44 -27t-55.5 -9.5t-55.5 9.5t-43.5 27t-28.5 40.5t-10.5 50z" />
<glyph unicode="&#xc9;" horiz-adv-x="1152" d="M94 210v1033q0 43 16.5 81.5t45 67t66.5 45t82 16.5h762v-52q0 -36 -11 -69q-19 -55 -67 -88t-106 -33h-488v-347h457q25 0 47 -9.5t38 -26t25 -39t8 -47.5q-1 -24 -11.5 -44.5t-27 -35.5t-37.5 -23.5t-45 -8.5h-454v-390h488q31 0 60.5 -10t53.5 -28t41 -43.5t24 -56.5 q6 -26 6 -50v-50l1 -2h-764q-44 0 -82 16.5t-66.5 45t-45 66.5t-16.5 82zM563 1595l86 114q16 21 31.5 41.5t27.5 37t20 26.5l8 10q18 18 40.5 27t46.5 9.5t47 -7.5t42 -25l23 -20l-86 -114q-16 -21 -31.5 -42t-28 -37t-20 -26.5l-7.5 -10.5q-18 -18 -40.5 -27t-46.5 -9.5 t-47 8t-42 25.5z" />
<glyph unicode="&#xcd;" horiz-adv-x="597" d="M136 134v39v191v883q0 43 16.5 81.5t45 67t67 45t82.5 16.5h57v-1093v-191v-39q0 -28 -10.5 -52.5t-28.5 -42.5t-42.5 -28.5t-52.5 -10.5t-52.5 10.5t-42.5 28.5t-28.5 42.5t-10.5 52.5zM211 1595l86 114q16 21 31.5 41.5t27.5 37t20 26.5l8 10q18 18 40.5 27t46.5 9.5 t47 -7.5t42 -25l23 -20l-86 -114q-16 -21 -31.5 -42t-28 -37t-20 -26.5l-7.5 -10.5q-18 -18 -40.5 -27t-46.5 -9.5t-47 8t-42 25.5z" />
<glyph unicode="&#xd3;" horiz-adv-x="1414" d="M86 695v64q0 166 45.5 299t127.5 226t196 142.5t251 49.5t251 -49.5t196 -142.5t127.5 -226t45.5 -299v-64q0 -167 -45 -299.5t-126.5 -224.5t-195.5 -141.5t-251 -49.5t-251 49.5t-196.5 141.5t-128.5 224.5t-46 299.5zM390 695q0 -114 21.5 -201.5t62 -147t99.5 -90 t135 -30.5q152 0 233 120t81 349v66q0 229 -82 348t-234 119t-234 -119t-82 -348v-66zM670 1595l86 114q16 21 31.5 41.5t27.5 37t20 26.5l8 10q18 18 40.5 27t46.5 9.5t47 -7.5t42 -25l23 -20l-86 -114q-16 -21 -31.5 -42t-28 -37t-20 -26.5l-7.5 -10.5q-18 -18 -40.5 -27 t-46.5 -9.5t-47 8t-42 25.5z" />
<glyph unicode="&#xd4;" horiz-adv-x="1414" d="M86 695v64q0 166 45.5 299t127.5 226t196 142.5t251 49.5t251 -49.5t196 -142.5t127.5 -226t45.5 -299v-64q0 -167 -45 -299.5t-126.5 -224.5t-195.5 -141.5t-251 -49.5t-251 49.5t-196.5 141.5t-128.5 224.5t-46 299.5zM390 695q0 -114 21.5 -201.5t62 -147t99.5 -90 t135 -30.5q152 0 233 120t81 349v66q0 229 -82 348t-234 119t-234 -119t-82 -348v-66zM405 1624q-5 27 1.5 55t25.5 51q1 1 13.5 13t31 29.5t41 38.5t42.5 40q29 26 65 40t75 14t75 -14.5t65 -40.5q20 -19 41.5 -39t40 -37t30.5 -28.5t13 -12.5q20 -23 27 -51.5t1 -57.5 q-5 -29 -27 -56q0 -1 -3 -4l-25 -26l-185 176q-23 21 -53 21t-53 -21l-187 -176l-23 26q-2 1 -5 4q-21 27 -27 56z" />
<glyph unicode="&#xd6;" horiz-adv-x="1414" d="M86 695v64q0 166 45.5 299t127.5 226t196 142.5t251 49.5t251 -49.5t196 -142.5t127.5 -226t45.5 -299v-64q0 -167 -45 -299.5t-126.5 -224.5t-195.5 -141.5t-251 -49.5t-251 49.5t-196.5 141.5t-128.5 224.5t-46 299.5zM323 1675q0 27 10 50t28.5 40.5t44 27t55.5 9.5 t55.5 -9.5t43.5 -27t28.5 -40.5t10.5 -50t-10.5 -50t-28.5 -40t-43.5 -26.5t-55.5 -9.5t-55.5 9.5t-44 26.5t-28.5 40t-10 50zM390 695q0 -114 21.5 -201.5t62 -147t99.5 -90t135 -30.5q152 0 233 120t81 349v66q0 229 -82 348t-234 119t-234 -119t-82 -348v-66zM810 1675 q0 27 10.5 50t28.5 40t43.5 27t55.5 10t55.5 -10t44 -27t29 -40t10.5 -50t-10.5 -50t-29 -40.5t-44 -27t-55.5 -9.5t-55.5 9.5t-43.5 27t-28.5 40.5t-10.5 50z" />
<glyph unicode="&#xda;" horiz-adv-x="1348" d="M127 509v950h37q54 0 101 -20.5t82.5 -56t55.5 -82.5t20 -100v-691q0 -142 68 -206q68 -65 187 -65q121 0 188 65q66 64 66 206v691q0 53 20.5 100t55.5 82.5t82 56t101 20.5h39v-950q0 -124 -42 -220q-41 -95 -114 -159q-37 -32 -80.5 -56.5t-94.5 -41.5 q-51 -16 -106 -24t-115 -8q-118 0 -222 32q-102 35 -174 98q-37 32 -65.5 71.5t-48.5 87.5q-41 97 -41 220zM568 1595l86 114q16 21 31.5 41.5t27.5 37t20 26.5l8 10q18 18 40.5 27t46.5 9.5t47 -7.5t42 -25l23 -20l-86 -114q-16 -21 -31.5 -42t-28 -37t-20 -26.5 l-7.5 -10.5q-18 -18 -40.5 -27t-46.5 -9.5t-47 8t-42 25.5z" />
<glyph unicode="&#xdc;" horiz-adv-x="1348" d="M127 509v950h37q54 0 101 -20.5t82.5 -56t55.5 -82.5t20 -100v-691q0 -142 68 -206q68 -65 187 -65q121 0 188 65q66 64 66 206v691q0 53 20.5 100t55.5 82.5t82 56t101 20.5h39v-950q0 -124 -42 -220q-41 -95 -114 -159q-37 -32 -80.5 -56.5t-94.5 -41.5 q-51 -16 -106 -24t-115 -8q-118 0 -222 32q-102 35 -174 98q-37 32 -65.5 71.5t-48.5 87.5q-41 97 -41 220zM287 1675q0 27 10 50t28.5 40.5t44 27t55.5 9.5t55.5 -9.5t43.5 -27t28.5 -40.5t10.5 -50t-10.5 -50t-28.5 -40t-43.5 -26.5t-55.5 -9.5t-55.5 9.5t-44 26.5 t-28.5 40t-10 50zM774 1675q0 27 10.5 50t28.5 40t43.5 27t55.5 10t55.5 -10t44 -27t29 -40t10.5 -50t-10.5 -50t-29 -40.5t-44 -27t-55.5 -9.5t-55.5 9.5t-43.5 27t-28.5 40.5t-10.5 50z" />
<glyph unicode="&#xdd;" horiz-adv-x="1266" d="M15 1399l68 33q39 19 81.5 21t81 -11.5t70.5 -41t52 -66.5l248 -536l249 536q19 39 51.5 66.5t71 41t80.5 11.5t81 -21l69 -33l-449 -872v-375q0 -32 -12 -59.5t-32.5 -48t-48.5 -32.5t-59 -12q-32 0 -59.5 12t-48.5 32.5t-33 48t-12 59.5v375zM563 1595l86 114 q16 21 31.5 41.5t27.5 37t20 26.5l8 10q18 18 40.5 27t46.5 9.5t47 -7.5t42 -25l23 -20l-86 -114q-16 -21 -31.5 -42t-28 -37t-20 -26.5l-7.5 -10.5q-18 -18 -40.5 -27t-46.5 -9.5t-47 8t-42 25.5z" />
<glyph unicode="&#xe1;" horiz-adv-x="1098" d="M101 315q0 82 30 145q29 63 91 108q60 44 151 68q92 23 210 23h124v60q0 72 -37 115q-38 44 -117 44h-28.5t-27.5 -2h-1h-4q-9 -2 -23.5 -7t-30 -15.5t-30 -28.5t-23.5 -46q-27 -52 -75 -85.5t-108 -41.5q-18 -4 -36 -4t-37 2h-14v75q0 67 25.5 129t74.5 109 q26 24 51 40.5t46 26.5q24 11 47 19q6 2 12.5 4.5t12.5 4.5q84 26 183 26q90 0 168 -23q77 -22 133 -69q55 -44 87 -115q32 -70 32 -160v-416v-172v-9v-120h-58q-69 0 -125.5 35.5t-86.5 93.5q-21 -24 -47 -50.5t-58 -43.5q-63 -33 -157 -33q-74 0 -140 24q-67 23 -112 64 q-48 42 -75 99t-27 126zM379 335q0 -51 37 -86q39 -34 100 -34q36 0 66 9q29 8 55 23q23 13 42 32q9 9 16 18.5t12 19.5v179h-115q-55 0 -95 -12q-41 -12 -67 -34t-38 -51q-6 -15 -9.5 -31t-3.5 -33zM490 1253q59 68 107 122q20 23 39 45t34.5 39t25 28l9.5 11 q17 18 39.5 27t45.5 9.5t46 -8t42 -24.5l22 -20q-60 -68 -107 -122q-20 -23 -39.5 -45t-34.5 -39t-24.5 -28l-9.5 -11q-17 -18 -39.5 -27t-45.5 -9.5t-46 7.5t-41 25z" />
<glyph unicode="&#xe4;" horiz-adv-x="1098" d="M98 319q0 82 30 147q17 32 39.5 59.5t53.5 49.5q32 23 69.5 40t83.5 28q45 12 98 17.5t114 5.5h126v61q0 73 -38 117q-18 23 -47.5 34t-67.5 12q-14 0 -32.5 -0.5t-32.5 -3.5q-9 -2 -23.5 -6.5t-30 -15.5t-30.5 -29.5t-25 -46.5q-26 -52 -74.5 -86.5t-109.5 -42.5 q-10 -2 -25 -2.5t-29 -0.5q-17 0 -35 1h1h-1l1 76q0 69 25.5 131t75.5 110q26 25 52 41.5t47 27.5q25 12 47 19l12 4t13 4q82 27 185 27q90 0 170 -23q78 -23 135 -70q56 -46 89 -116q15 -35 23 -75.5t8 -87.5v-725h-58q-70 0 -127.5 36t-87.5 94q-22 -23 -48 -50t-58 -44 q-65 -34 -158 -34q-76 0 -143 23q-32 13 -61 29t-52 37q-48 41 -77 100q-27 58 -27 128zM168 1365q0 27 10 50t28.5 40.5t44 27t55.5 9.5t55.5 -9.5t43.5 -27t28.5 -40.5t10.5 -50t-10.5 -50t-28.5 -40t-43.5 -26.5t-55.5 -9.5t-55.5 9.5t-44 26.5t-28.5 40t-10 50zM380 339 q0 -52 37 -87q37 -34 102 -34q18 0 34.5 2t32.5 7q28 8 54 23q13 7 23.5 15t19.5 17q9 10 16 19.5t13 19.5v181h-116q-55 0 -97 -12q-40 -12 -67 -34q-25 -21 -39 -52q-13 -29 -13 -65zM655 1365q0 27 10.5 50t28.5 40t43.5 27t55.5 10t55.5 -10t44 -27t29 -40t10.5 -50 t-10.5 -50t-29 -40.5t-44 -27t-55.5 -9.5t-55.5 9.5t-43.5 27t-28.5 40.5t-10.5 50z" />
<glyph unicode="&#xe9;" horiz-adv-x="1107" d="M82 512v38q0 60 8.5 114.5t26.5 104.5q35 101 98 172q62 70 154 112q90 40 204 40t200 -37t145 -105q59 -66 89 -163q19 -63 25 -138h1h-1h1v-41q0 -7 -1 -10q-2 -30 -15 -56t-34 -45t-48 -30t-57 -11h-511q3 -26 10 -49.5t18 -44.5q10 -21 23 -38.5t30 -32.5 q32 -29 76 -46q45 -17 98 -17q76 0 142 29q46 19 82 25.5t65 3.5t51.5 -14.5t42.5 -30.5l30 -30q-6 -9 -16.5 -21t-22.5 -24.5t-24 -24t-21 -20.5q-19 -17 -41 -32t-48 -29q-26 -13 -55 -23.5t-61 -18.5q-64 -16 -142 -16q-124 0 -219 40q-95 38 -165 108q-67 68 -103 162 q-35 94 -35 199zM370 648h391v23q-2 43 -13 77q-11 37 -34 63q-24 27 -58 40q-36 15 -84 15q-47 0 -80 -16q-35 -17 -60 -45q-23 -27 -40 -68q-8 -20 -13.5 -42t-8.5 -47zM518 1251q60 68 108 123q20 23 39.5 45t35 39.5t25 28.5l9.5 11q17 18 39.5 27t46 9t46.5 -8t42 -25 l22 -20q-59 -69 -107 -123q-20 -23 -39.5 -45t-35 -39.5t-25 -28l-9.5 -10.5q-18 -18 -40 -27t-45.5 -9.5t-46.5 7.5t-42 25z" />
<glyph unicode="&#xed;" horiz-adv-x="561" d="M124 141v940h61q46 0 87 -17.5t71.5 -47.5t48 -70t17.5 -86l-1 -719q0 -29 -11 -55t-30.5 -45.5t-45.5 -30.5t-55 -11q-30 0 -55.5 11t-45 30.5t-30.5 45.5t-11 55zM124 1243l110 126q21 24 40.5 46.5t35.5 40.5t26 29l10 11q18 19 41 28.5t47 10t47.5 -8t43.5 -25.5 l22 -21l-110 -126q-21 -24 -40.5 -46.5t-35 -40.5t-25.5 -29l-10 -11q-18 -19 -41 -28.5t-47 -9.5t-48 8.5t-43 25.5z" />
<glyph unicode="&#xf3;" horiz-adv-x="1158" d="M85 533v20q0 113 32 212q33 97 96 169q64 72 156 112q90 40 210 40t212 -40t156 -112q63 -72 96 -169q33 -98 33 -212v-20q0 -116 -33 -213q-33 -96 -96 -168q-63 -70 -155 -111q-92 -40 -211 -40q-120 0 -212 40q-92 41 -155 111q-64 71 -97 168q-32 99 -32 213z M364 533q0 -65 12 -120q12 -57 37 -97q26 -42 67 -66q40 -24 101 -24q58 0 99 24q42 25 67 66q26 39 38 97q12 55 12 120v20q0 61 -12 118t-38 97q-26 43 -68 67q-40 25 -100 25q-59 0 -99 -25q-40 -23 -67 -67q-25 -41 -37 -97q-12 -57 -12 -118v-20zM484 1246 q59 68 107 122q20 23 39.5 45t34.5 39t24.5 28l9.5 11q18 18 40 27t45.5 9.5t46.5 -7.5t42 -25l22 -20q-60 -68 -107 -122q-20 -23 -39.5 -45t-34.5 -39.5t-24.5 -28l-9.5 -10.5q-18 -18 -40 -27t-45.5 -9.5t-46 7.5t-41.5 25z" />
<glyph unicode="&#xf4;" horiz-adv-x="1158" d="M66 530v21q0 118 34 219t99 174.5t160.5 115.5t217.5 42q123 0 219 -42t161.5 -115.5t99.5 -174.5t34 -219v-21q0 -119 -34 -219.5t-99.5 -174t-160.5 -115t-218 -41.5t-218.5 41.5t-161 115t-99.5 174t-34 219.5zM281 1259q-5 27 1.5 55t25.5 51q1 1 13.5 13t31 29.5 t41 38.5t42.5 40q29 26 65 40t75 14t75 -14.5t65 -40.5q20 -19 41.5 -39t40 -37t30.5 -28.5t13 -12.5q20 -23 27 -51.5t1 -57.5q-5 -29 -27 -56q0 -1 -3 -4l-25 -26l-185 176q-23 21 -53 21t-53 -21l-187 -176l-23 26q-2 1 -5 4q-21 27 -27 56zM355 530q0 -66 12 -124 t38.5 -100.5t69 -67.5t104.5 -25q60 0 102.5 25t69.5 67.5t39 100.5t12 124v21q0 64 -12 121.5t-39 101t-70 69t-104 25.5q-60 0 -102.5 -25.5t-69 -69t-38.5 -101t-12 -121.5v-21z" />
<glyph unicode="&#xf6;" horiz-adv-x="1158" d="M66 530v21q0 118 34 219t99 174.5t160.5 115.5t217.5 42q123 0 219 -42t161.5 -115.5t99.5 -174.5t34 -219v-21q0 -119 -34 -219.5t-99.5 -174t-160.5 -115t-218 -41.5t-218.5 41.5t-161 115t-99.5 174t-34 219.5zM193 1365q0 27 10 50t28.5 40.5t44 27t55.5 9.5 t55.5 -9.5t43.5 -27t28.5 -40.5t10.5 -50t-10.5 -50t-28.5 -40t-43.5 -26.5t-55.5 -9.5t-55.5 9.5t-44 26.5t-28.5 40t-10 50zM355 530q0 -66 12 -124t38.5 -100.5t69 -67.5t104.5 -25q60 0 102.5 25t69.5 67.5t39 100.5t12 124v21q0 64 -12 121.5t-39 101t-70 69t-104 25.5 q-60 0 -102.5 -25.5t-69 -69t-38.5 -101t-12 -121.5v-21zM680 1365q0 27 10.5 50t28.5 40t43.5 27t55.5 10t55.5 -10t44 -27t29 -40t10.5 -50t-10.5 -50t-29 -40.5t-44 -27t-55.5 -9.5t-55.5 9.5t-43.5 27t-28.5 40.5t-10.5 50z" />
<glyph unicode="&#xfa;" horiz-adv-x="1146" d="M142 403v680h56q48 0 89.5 -18t73 -49.5t49.5 -73t18 -89.5v-450q0 -53 12 -87q10 -34 32 -54q21 -20 50 -27q28 -7 67 -7q66 0 111 33q45 34 67 89v23t-0.5 60t-0.5 84v96v260q0 43 16.5 81.5t45 67t66.5 45t82 16.5h74v-1085q-71 6 -130 36q-74 39 -114 125 q-53 -77 -132 -120q-39 -22 -86.5 -32.5t-101.5 -10.5q-80 0 -142 22q-62 20 -109 70q-45 48 -69 125q-24 78 -24 190zM474 1244l110 126q21 24 40.5 46.5t35 40t25 28.5l9.5 11q18 18 41 27.5t47 10t47.5 -8t42.5 -25.5l23 -20q-62 -70 -110 -125q-21 -24 -40.5 -46.5 t-35 -40.5t-25 -29l-9.5 -11q-18 -18 -41 -27.5t-47 -10t-47.5 8t-42.5 25.5z" />
<glyph unicode="&#xfc;" horiz-adv-x="1146" d="M123 406v676h56q47 0 89 -18t73 -49t49 -72.5t18 -89.5v-447q0 -26 2.5 -48.5t8.5 -39.5q12 -34 32 -53q21 -20 50 -27q28 -7 67 -7q67 0 109 33q44 32 67 89v23t-0.5 59.5t-0.5 83.5v95v258q0 43 16.5 81.5t45 67t66.5 45t82 16.5h73v-1080q-72 6 -129 36 q-74 39 -114 124q-51 -75 -130 -119q-79 -43 -188 -43q-79 0 -141 22q-64 21 -109 69q-44 49 -68 126q-24 76 -24 189zM194 1365q0 27 10 50t28.5 40.5t44 27t55.5 9.5t55.5 -9.5t43.5 -27t28.5 -40.5t10.5 -50t-10.5 -50t-28.5 -40t-43.5 -26.5t-55.5 -9.5t-55.5 9.5 t-44 26.5t-28.5 40t-10 50zM681 1365q0 27 10.5 50t28.5 40t43.5 27t55.5 10t55.5 -10t44 -27t29 -40t10.5 -50t-10.5 -50t-29 -40.5t-44 -27t-55.5 -9.5t-55.5 9.5t-43.5 27t-28.5 40.5t-10.5 50z" />
<glyph unicode="&#xfd;" horiz-adv-x="1028" d="M6 1039l70 24q41 15 82.5 12t77.5 -20t65 -46.5t44 -69.5l160 -536l160 536h1q15 40 43 70t64.5 47t78.5 19.5t83 -12.5l68 -23l-421 -1209q-8 -20 -18 -42t-21 -45q-11 -26 -27 -48.5t-36 -42.5q-19 -21 -44 -38t-54 -32q-9 -3 -31.5 -6t-51 -5.5t-59 -4.5t-55.5 -3 q-37 -2 -71 13.5t-57 44.5l-1 1q-19 25 -28 57t-9 67l-1 48h1h111h2q11 1 25 1.5t27.5 1.5t25 1.5t16.5 1.5q33 6 52 20q11 7 20 16t17 19q8 12 14 25t12 28l30 82zM403 1243l110 126q21 24 40.5 46.5t35.5 40.5t26 29l10 11q18 19 41 28.5t47 10t47.5 -8t43.5 -25.5l22 -21 l-110 -126q-21 -24 -40.5 -46.5t-35 -40.5t-25.5 -29l-10 -11q-18 -19 -41 -28.5t-47 -9.5t-48 8.5t-43 25.5z" />
<glyph unicode="&#x106;" horiz-adv-x="1340" d="M70 685v47v48q0 163 43 295q22 66 53 121t70 102q79 93 194 140q109 50 252 50q137 0 242 -39t179 -107q38 -35 67 -76.5t49 -89.5q10 -24 21 -51t19 -64t12 -85.5t0 -114.5h-65q-50 0 -94.5 17t-79.5 46q-30 25 -50 58.5t-29 71.5q-2 8 -3.5 16t-3.5 15q-18 50 -51 85 q-34 34 -86 52q-54 18 -127 18q-155 0 -230 -112q-74 -111 -74 -346v-50v-50q0 -235 74 -345q75 -112 230 -112q36 0 68 4t59 13q53 18 86 53q33 36 51 84q2 8 3.5 15.5t3.5 15.5q9 38 29 72t50 59q35 29 79.5 45.5t94.5 16.5h65q4 -66 0 -114.5t-12 -85t-19 -63.5t-21 -51 q-20 -49 -49 -90t-67 -75q-72 -69 -179 -109q-53 -19 -113.5 -29t-128.5 -10q-140 0 -252 50q-115 49 -194 141q-39 46 -70 102t-53 122t-32.5 139.5t-10.5 154.5zM615 1595l86 114q16 21 31.5 41.5t27.5 37t20 26.5l8 10q18 18 40.5 27t46.5 9.5t47 -7.5t42 -25l23 -20 l-86 -114q-16 -21 -31.5 -42t-28 -37t-20 -26.5l-7.5 -10.5q-18 -18 -40.5 -27t-46.5 -9.5t-47 8t-42 25.5z" />
<glyph unicode="&#x107;" horiz-adv-x="1068" d="M73 525v30q0 56 7.5 107t21.5 99q30 95 90 166q61 72 150 112q91 41 211 41q45 0 87 -7t82 -21q78 -29 136 -79q59 -51 91 -120q9 -17 16 -44t11.5 -57t6 -60.5t-1.5 -54.5h-57q-69 0 -125.5 35.5t-86.5 92.5q-9 15 -18 26.5t-21 21.5q-21 20 -55 32q-33 11 -70 11 q-60 0 -101 -25q-38 -24 -60 -66t-29 -96q-4 -27 -6 -55.5t-2 -58.5v-30q0 -30 2 -58.5t6 -56.5q7 -53 29 -96q22 -41 60 -66q39 -24 101 -24q37 0 70 11q17 5 30.5 13t24.5 18q12 11 21 22t18 26q30 58 86.5 93.5t125.5 35.5h57v-1q3 -24 1.5 -54t-6 -60t-11.5 -57t-16 -45 q-32 -67 -91 -120q-59 -51 -136 -78q-78 -28 -169 -28q-120 0 -211 41q-90 40 -150 111q-60 70 -90 167q-29 96 -29 206zM433 1243l110 126q21 24 40.5 46.5t35.5 40.5t26 29l10 11q18 19 41 28.5t47 10t47.5 -8t43.5 -25.5l22 -21l-110 -126q-21 -24 -40.5 -46.5t-35 -40.5 t-25.5 -29l-10 -11q-18 -19 -41 -28.5t-47 -9.5t-48 8.5t-43 25.5z" />
<glyph unicode="&#x10c;" horiz-adv-x="1340" d="M70 685q0 -81 10.5 -154.5t32.5 -139.5t53 -122t70 -102q79 -92 194 -141q112 -50 252 -50q68 0 128.5 10t113.5 29q107 40 179 109q38 34 67 75t49 90q10 24 21 51t19 63.5t12 85t0 114.5h-65q-50 0 -94.5 -16.5t-79.5 -45.5q-30 -25 -50 -59t-29 -72q-2 -8 -3.5 -15.5 t-3.5 -15.5q-18 -48 -51 -84q-33 -35 -86 -53q-27 -9 -59 -13t-68 -4q-155 0 -230 112q-74 110 -74 345v50v50q0 235 74 346q75 112 230 112q73 0 127 -18q52 -18 86 -52q33 -35 51 -85q2 -7 3.5 -15t3.5 -16q9 -38 29 -71.5t50 -58.5q35 -29 79.5 -46t94.5 -17h65 q4 66 0 114.5t-12 85.5t-19 64t-21 51q-20 48 -49 89.5t-67 76.5q-74 68 -179 107t-242 39q-143 0 -252 -50q-115 -47 -194 -140q-39 -47 -70 -102t-53 -121q-43 -132 -43 -295v-48v-47zM421 1819q6 29 27 56q3 3 5 4l23 26l187 -176q23 -21 53 -21t53 21l185 176l25 -26 q3 -3 3 -4q22 -27 27 -56q6 -29 -1 -57.5t-27 -51.5q-1 -1 -13 -12.5t-30.5 -28.5t-40 -37t-41.5 -39q-29 -26 -65 -40.5t-75 -14.5t-75 14t-65 40q-20 19 -42.5 40t-41 38.5t-31 29.5t-13.5 13q-19 23 -25.5 51t-1.5 55z" />
<glyph unicode="&#x10d;" horiz-adv-x="1068" d="M73 525q0 -110 29 -206q30 -97 90 -167q60 -71 150 -111q91 -41 211 -41q91 0 169 28q77 27 136 78q59 53 91 120q9 18 16 45t11.5 57t6 60t-1.5 54v1h-57q-69 0 -125.5 -35.5t-86.5 -93.5q-9 -15 -18 -26t-21 -22q-11 -10 -24.5 -18t-30.5 -13q-33 -11 -70 -11 q-62 0 -101 24q-38 25 -60 66q-22 43 -29 96q-4 28 -6 56.5t-2 58.5v30q0 30 2 58.5t6 55.5q7 54 29 96t60 66q41 25 101 25q37 0 70 -11q34 -12 55 -32q12 -10 21 -21.5t18 -26.5q30 -57 86.5 -92.5t125.5 -35.5h57q3 24 1.5 54.5t-6 60.5t-11.5 57t-16 44q-32 69 -91 120 q-58 50 -136 79q-40 14 -82 21t-87 7q-120 0 -211 -41q-89 -40 -150 -112q-60 -71 -90 -166q-14 -48 -21.5 -99t-7.5 -107v-30zM247 1453q6 29 27 56q3 3 5 4l23 26l187 -176q23 -21 53 -21t53 21l185 176l25 -26q3 -3 3 -4q22 -27 27 -56q6 -29 -1 -57.5t-27 -51.5 q-1 -1 -13 -12.5t-30.5 -28.5t-40 -37t-41.5 -39q-29 -26 -65 -40.5t-75 -14.5t-75 14t-65 40q-20 19 -42.5 40t-41 38.5t-31 29.5t-13.5 13q-19 23 -25.5 51t-1.5 55z" />
<glyph unicode="&#x10e;" horiz-adv-x="1331" d="M114 185v1084q0 38 14.5 72t39.5 59t59 39.5t72 14.5h263q73 0 140 -13t129 -38q61 -26 113 -60.5t96 -81.5q87 -88 137 -219q25 -64 36.5 -134.5t11.5 -148.5v-67q0 -78 -11.5 -148t-36.5 -134q-50 -129 -137 -219q-45 -45 -97 -80.5t-114 -60.5q-124 -50 -271 -50h-259 q-38 0 -72 14.5t-59 39.5t-39.5 59t-14.5 72zM305 1819q6 29 27 56q3 3 5 4l23 26l187 -176q23 -21 53 -21t53 21l185 176l25 -26q3 -3 3 -4q22 -27 27 -56q6 -29 -1 -57.5t-27 -51.5q-1 -1 -13 -12.5t-30.5 -28.5t-40 -37t-41.5 -39q-29 -26 -65 -40.5t-75 -14.5t-75 14 t-65 40q-20 19 -42.5 40t-41 38.5t-31 29.5t-13.5 13q-19 23 -25.5 51t-1.5 55zM414 241h144q178 0 271 117t93 334v69q0 221 -92 336q-94 115 -268 115h-148v-971z" />
<glyph unicode="&#x10f;" horiz-adv-x="1304" d="M81 531v21q0 62 7 118t22 107q14 51 34.5 94.5t46.5 80.5q57 74 133 112q79 40 180 40q85 0 147 -31q64 -30 114 -86v307q0 50 19 94t51.5 76.5t76.5 51.5t94 19h51l-2 -1531l1 -1h-56q-68 0 -123 35.5t-84 91.5q-1 0 -12.5 -13t-30 -31t-41.5 -36.5t-47 -30.5 q-70 -35 -160 -35q-50 0 -94.5 10t-83.5 31q-39 20 -72 49t-61 65q-26 37 -46.5 80t-34.5 94q-15 51 -22 104.5t-7 113.5zM369 531q0 -33 3 -63.5t8 -59.5q11 -55 36 -99q25 -43 64 -67q38 -25 97 -25q70 0 116 31q23 14 40.5 35t31.5 47v427q-14 26 -31.5 47.5t-40.5 35.5 q-47 30 -114 30q-58 0 -97 -24q-40 -25 -65 -68q-24 -44 -36 -101q-12 -59 -12 -125v-21zM1194 1388q1 22 13 43q10 20 26 36q15 15 37 26q11 5 21.5 7.5t22.5 3.5q25 3 52 -5q26 -10 44 -25q10 -8 17.5 -18t14.5 -21q12 -23 15 -49q1 -5 1 -12v-15v-14.5t-1 -16.5 q0 -16 -5 -41q-2 -13 -6 -27t-11 -29q-6 -15 -12.5 -29t-13.5 -27q-13 -24 -25 -44q-12 -18 -16 -22l-11 6q-17 9 -25 29q-6 20 0 40q6 12 12 27q2 8 3.5 15.5t0.5 16.5q-4 -1 -11 -1q-4 -1 -12 -1q-30 0 -55 12q-26 12 -43 32q-19 18 -28 47q-9 27 -5 56z" />
<glyph unicode="&#x110;" horiz-adv-x="1361" d="M10 642v183h150v631h448q147 0 269.5 -50.5t210 -142t136.5 -219.5t49 -284v-66q0 -156 -48.5 -283.5t-137 -219t-211.5 -141.5t-271 -50h-445v642h-150zM460 241h145q178 0 271 117.5t93 335.5v68q0 222 -92 336.5t-269 114.5h-148v-388h249v-183h-249v-401z" />
<glyph unicode="&#x119;" horiz-adv-x="1107" d="M72 504v39q0 123 35.5 225.5t101 176.5t159 115.5t209.5 41.5q117 0 206 -38.5t149.5 -108t91 -167.5t30.5 -218v-123h-689q7 -53 28.5 -96t55 -73.5t78.5 -47.5t101 -17q79 0 146 29.5t115 91.5l142 -159q-28 -41 -72 -78.5t-105 -65.5h1q-74 -42 -114 -82.5t-40 -93.5 q0 -29 15 -47t51 -18q28 0 47 7t33 13l29 -157q-25 -15 -64.5 -29.5t-100.5 -14.5q-47 0 -88.5 13.5t-72.5 39.5t-48.5 65.5t-17.5 90.5q0 43 14 85t49 80q-112 10 -200.5 54.5t-149.5 114t-93 160t-32 192.5zM368 644h402v23q-1 43 -12.5 80t-35 64t-60 42t-86.5 15 q-47 0 -82.5 -16.5t-61 -46t-41.5 -70.5t-23 -91z" />
<glyph unicode="&#x139;" horiz-adv-x="1109" d="M111 181v1279h93q43 0 80.5 -16.5t66 -45t45 -66t16.5 -80.5v-1011h431q43 0 80.5 -16t65.5 -44t44.5 -65.5t16.5 -80.5v-35h-759q-37 0 -70 14t-57.5 39t-38.5 57.5t-14 70.5zM158 1595l86 114q16 21 31.5 41.5t27.5 37t20 26.5l8 10q18 18 40.5 27t46.5 9.5t47 -7.5 t42 -25l23 -20l-86 -114q-16 -21 -31.5 -42t-28 -37t-20 -26.5l-7.5 -10.5q-18 -18 -40.5 -27t-46.5 -9.5t-47 8t-42 25.5z" />
<glyph unicode="&#x13a;" horiz-adv-x="543" d="M132 1618l197 310h315l-277 -310h-235zM141 134v1182q0 46 17.5 87t48 71t71 47.5t87.5 17.5h61v-1405q0 -30 -11 -56t-30.5 -45.5t-45.5 -30.5t-55 -11t-55 11t-45.5 30.5t-31 45.5t-11.5 56z" />
<glyph unicode="&#x13d;" horiz-adv-x="1109" d="M111 181v1279h93q43 0 80.5 -16.5t66 -45t45 -66t16.5 -80.5v-1011h431q43 0 80.5 -16t65.5 -44t44.5 -65.5t16.5 -80.5v-35h-759q-37 0 -70 14t-57.5 39t-38.5 57.5t-14 70.5zM695 1308q1 22 13 43q10 20 26 36q15 15 37 26q11 5 21.5 7.5t22.5 3.5q25 3 52 -5 q26 -10 44 -25q10 -8 17.5 -18t14.5 -21q12 -23 15 -49q1 -5 1 -12v-15v-14.5t-1 -16.5q0 -16 -5 -41q-2 -13 -6 -27t-11 -29q-6 -15 -12.5 -29t-13.5 -27q-13 -24 -25 -44q-12 -18 -16 -22l-11 6q-17 9 -25 29q-6 20 0 40q6 12 12 27q2 8 3.5 15.5t0.5 16.5q-4 -1 -11 -1 q-4 -1 -12 -1q-30 0 -55 12q-26 12 -43 32q-19 18 -28 47q-9 27 -5 56z" />
<glyph unicode="&#x13e;" horiz-adv-x="693" d="M141 134v1182q0 46 17.5 87t48 71t71 47.5t87.5 17.5h61v-1405q0 -30 -11 -56t-30.5 -45.5t-45.5 -30.5t-55 -11t-55 11t-45.5 30.5t-31 45.5t-11.5 56zM570 1388q1 22 13 43q10 20 26 36q15 15 37 26q11 5 21.5 7.5t22.5 3.5q25 3 52 -5q26 -10 44 -25q10 -8 17.5 -18 t14.5 -21q12 -23 15 -49q1 -5 1 -12v-15v-14.5t-1 -16.5q0 -16 -5 -41q-2 -13 -6 -27t-11 -29q-6 -15 -12.5 -29t-13.5 -27q-13 -24 -25 -44q-12 -18 -16 -22l-11 6q-17 9 -25 29q-6 20 0 40q6 12 12 27q2 8 3.5 15.5t0.5 16.5q-4 -1 -11 -1q-4 -1 -12 -1q-30 0 -55 12 q-26 12 -43 32q-19 18 -28 47q-9 27 -5 56z" />
<glyph unicode="&#x143;" horiz-adv-x="1446" d="M106 0v1458h100q47 0 91.5 -12t83.5 -34t72.5 -53.5t57.5 -71.5l482 -790v702q0 53 20 100t55.5 82.5t82.5 56t101 20.5h40v-1458h-100q-47 0 -91.5 12t-83.5 34t-72.5 53.5t-57.5 71.5l-481 788v-699q0 -54 -20 -101.5t-55.5 -82.5t-82.5 -55.5t-101 -20.5h-41z M675 1595l86 114q16 21 31.5 41.5t27.5 37t20 26.5l8 10q18 18 40.5 27t46.5 9.5t47 -7.5t42 -25l23 -20l-86 -114q-16 -21 -31.5 -42t-28 -37t-20 -26.5l-7.5 -10.5q-18 -18 -40.5 -27t-46.5 -9.5t-47 8t-42 25.5z" />
<glyph unicode="&#x144;" horiz-adv-x="1147" d="M95 0v1081q73 -6 130 -36q71 -39 114 -124q51 75 130 119q81 43 189 43q38 0 73.5 -5.5t67.5 -16.5q64 -21 107 -69q46 -49 70 -126q12 -39 17.5 -85.5t5.5 -103.5v-677h-55q-48 0 -89.5 18t-72.5 49t-49 73t-18 89l-1 448q0 27 -2.5 48.5t-8.5 38.5q-10 33 -31 54 q-21 19 -51 27q-28 7 -67 7q-65 0 -110 -33q-43 -33 -66 -89v-262q0 -114 1 -259q0 -43 -16.5 -81t-45.5 -66.5t-67.5 -45t-81.5 -16.5h-73zM479 1243l110 126q21 24 40.5 46.5t35.5 40.5t26 29l10 11q18 19 41 28.5t47 10t47.5 -8t43.5 -25.5l22 -21l-110 -126 q-21 -24 -40.5 -46.5t-35 -40.5t-25.5 -29l-10 -11q-18 -19 -41 -28.5t-47 -9.5t-48 8.5t-43 25.5z" />
<glyph unicode="&#x147;" horiz-adv-x="1446" d="M106 0v1458h100q47 0 91.5 -12t83.5 -34t72.5 -53.5t57.5 -71.5l482 -790v702q0 53 20 100t55.5 82.5t82.5 56t101 20.5h40v-1458h-100q-47 0 -91.5 12t-83.5 34t-72.5 53.5t-57.5 71.5l-481 788v-699q0 -54 -20 -101.5t-55.5 -82.5t-82.5 -55.5t-101 -20.5h-41z M435 1819q6 29 27 56q3 3 5 4l23 26l187 -176q23 -21 53 -21t53 21l185 176l25 -26q3 -3 3 -4q22 -27 27 -56q6 -29 -1 -57.5t-27 -51.5q-1 -1 -13 -12.5t-30.5 -28.5t-40 -37t-41.5 -39q-29 -26 -65 -40.5t-75 -14.5t-75 14t-65 40q-20 19 -42.5 40t-41 38.5t-31 29.5 t-13.5 13q-19 23 -25.5 51t-1.5 55z" />
<glyph unicode="&#x148;" horiz-adv-x="1147" d="M95 0v1081q73 -6 130 -36q71 -39 114 -124q51 75 130 119q81 43 189 43q38 0 73.5 -5.5t67.5 -16.5q64 -21 107 -69q46 -49 70 -126q12 -39 17.5 -85.5t5.5 -103.5v-677h-55q-48 0 -89.5 18t-72.5 49t-49 73t-18 89l-1 448q0 27 -2.5 48.5t-8.5 38.5q-10 33 -31 54 q-21 19 -51 27q-28 7 -67 7q-65 0 -110 -33q-43 -33 -66 -89v-262q0 -114 1 -259q0 -43 -16.5 -81t-45.5 -66.5t-67.5 -45t-81.5 -16.5h-73zM181 1528v9h247l147 -143l146 143h247v-11l-302 -281h-183z" />
<glyph unicode="&#x154;" horiz-adv-x="1307" d="M116 151v1110q0 42 16 78.5t43.5 63.5t64 43t78.5 16h342q64 0 121 -7t108 -22q100 -28 169 -84q35 -28 61.5 -62.5t45.5 -76.5q37 -80 37 -191q0 -78 -17 -144q-10 -32 -23 -60t-30 -54q-35 -50 -82 -87q-24 -19 -51.5 -35t-57.5 -30l295 -557l-43 -22 q-30 -17 -63.5 -24.5t-66.5 -5.5q-64 5 -117 41t-83 93l-204 399h-240v-386q0 -32 -12.5 -59.5t-34 -48t-50 -32t-60.5 -10.5q-31 1 -57.5 14t-46 34t-31 48.5t-11.5 57.5zM419 778h242q61 0 105 16q22 7 41 18t34 25q14 15 25.5 32t19.5 37q14 42 14 89q0 105 -58 164 q-30 29 -75 44t-107 15h-241v-440zM563 1595l86 114q16 21 31.5 41.5t27.5 37t20 26.5l8 10q18 18 40.5 27t46.5 9.5t47 -7.5t42 -25l23 -20l-86 -114q-16 -21 -31.5 -42t-28 -37t-20 -26.5l-7.5 -10.5q-18 -18 -40.5 -27t-46.5 -9.5t-47 8t-42 25.5z" />
<glyph unicode="&#x155;" horiz-adv-x="747" d="M105 135v947v-1v1h59q72 -1 129.5 -37.5t87.5 -96.5q30 60 87.5 96.5t129.5 37.5h59v-287l-5 1q-14 1 -26.5 1.5t-25.5 0.5q-42 0 -75.5 -7t-59.5 -23q-25 -14 -44.5 -33.5t-32.5 -45.5v-554q0 -30 -11 -56t-30.5 -45.5t-45 -30.5t-53.5 -11q-30 0 -56 11t-45.5 30.5 t-30.5 45.5t-11 56zM326 1243l110 126q21 24 40.5 46.5t35.5 40.5t26 29l10 11q18 19 41 28.5t47 10t47.5 -8t43.5 -25.5l22 -21l-110 -126q-21 -24 -40.5 -46.5t-35 -40.5t-25.5 -29l-10 -11q-18 -19 -41 -28.5t-47 -9.5t-48 8.5t-43 25.5z" />
<glyph unicode="&#x15a;" horiz-adv-x="1259" d="M65 564h67q61 0 112 -24t85 -66q5 -6 10.5 -17t11.5 -24.5t11 -28.5t9 -28q2 -8 4 -13q1 -2 2 -5l2 -6q1 -1 1 -1.5t1 -1.5q2 -3 2.5 -5.5t2.5 -5.5q4 -6 5 -9l2 -2v-1q20 -32 47 -52q37 -29 90 -42q26 -6 56 -9.5t62 -3.5q59 0 101 13q44 13 70 34q29 23 42 52 q13 30 13 66q0 40 -11 68q-11 30 -42 57q-33 27 -87 50q-28 13 -63 26t-80 27q-101 32 -188 72q-89 41 -154 94q-34 27 -59.5 58.5t-45.5 66.5q-39 72 -39 166q0 89 40 166q39 76 111 128q72 54 169 82q97 30 216 30q123 0 219 -34q98 -33 169 -93q69 -60 108 -142 q6 -14 11 -28.5t9 -30.5q6 -21 9 -41.5t5 -48.5v-2v-34l1 -113h-67q-61 0 -112 24t-85 66q-5 6 -11 17t-11.5 24.5t-11 28.5t-8.5 28q0 1 -2.5 7l-5 12t-5 11.5t-3.5 7.5q-1 3 -5 9q-6 9 -13 18t-15 17q-16 14 -34 24.5t-41 18.5t-49 12t-57 4q-57 0 -102 -14 q-43 -12 -72 -35q-28 -23 -43 -54q-14 -29 -14 -66q0 -72 73 -120q37 -25 90 -47t125 -44q120 -36 209 -81q90 -45 150 -102q61 -56 92 -128q15 -35 23 -75t8 -85q0 -95 -38 -171t-106 -126t-166 -79q-98 -27 -217 -27q-72 0 -144 12q-70 13 -137 39q-65 26 -121 65 q-55 39 -97 91q-21 27 -37 57t-28 64q-1 4 -5 14v1q-6 21 -8.5 41.5t-4.5 47.5v2v34v8zM601 1595l86 114q16 21 31.5 41.5t27.5 37t20 26.5l8 10q18 18 40.5 27t46.5 9.5t47 -7.5t42 -25l23 -20l-86 -114q-16 -21 -31.5 -42t-28 -37t-20 -26.5l-7.5 -10.5q-18 -18 -40.5 -27 t-46.5 -9.5t-47 8t-42 25.5z" />
<glyph unicode="&#x15b;" horiz-adv-x="1053" d="M77 338l1 128h57q49 0 92 -18.5t76 -50.5q35 -38 49 -93q2 -10 5 -20t7 -17q15 -30 42 -48q26 -17 61 -28q34 -9 73 -9q82 0 123 32q41 30 41 80q0 23 -9 41q-8 19 -32 34q-13 9 -29.5 16.5t-37.5 15.5q-21 7 -48.5 13.5t-59.5 14.5q-42 9 -79 20t-72 24q-34 13 -64 29.5 t-56 35.5q-24 20 -44 43t-34 49q-28 50 -28 120q0 64 28 126q31 61 83 104q55 46 134 73q80 26 177 26q106 0 185 -25q41 -14 75.5 -31.5t63.5 -40.5q57 -44 88 -107q29 -59 31 -129v-136h-60q-55 0 -100.5 22t-76.5 60q-5 5 -10.5 15t-10.5 22.5t-9.5 25.5t-7.5 25 q-5 20 -16.5 38.5t-31.5 32.5q-23 17 -51 22t-70 5q-71 0 -110 -33q-40 -31 -40 -82q0 -24 11 -41q9 -18 33 -33q11 -8 26 -15t35 -14q19 -6 42 -12t50 -11q84 -16 160 -41q37 -12 68 -28t58 -35t47.5 -42.5t35.5 -50.5q31 -56 31 -135q0 -71 -32 -129q-30 -58 -89 -102 q-29 -22 -64 -38.5t-76 -29.5q-81 -24 -183 -24q-115 0 -198 32q-42 15 -78 34.5t-65 47.5q-35 34 -58 69.5t-36 68t-18 59.5t-5 45zM505 1251q60 68 108 123q20 23 39.5 45t35 39.5t25 28.5l9.5 11q17 18 39.5 27t46 9t46.5 -8t42 -25l22 -20q-59 -69 -107 -123 q-20 -23 -39.5 -45t-35 -39.5t-25 -28l-9.5 -10.5q-18 -18 -40 -27t-45.5 -9.5t-46.5 7.5t-42 25z" />
<glyph unicode="&#x160;" horiz-adv-x="1259" d="M65 564h67q61 0 112 -24t85 -66q5 -6 10.5 -17t11.5 -24.5t11 -28.5t9 -28q2 -8 4 -13q1 -2 2 -5l2 -6q1 -1 1 -1.5t1 -1.5q2 -3 2.5 -5.5t2.5 -5.5q4 -6 5 -9l2 -2v-1q20 -32 47 -52q37 -29 90 -42q26 -6 56 -9.5t62 -3.5q59 0 101 13q44 13 70 34q29 23 42 52 q13 30 13 66q0 40 -11 68q-11 30 -42 57q-33 27 -87 50q-28 13 -63 26t-80 27q-101 32 -188 72q-89 41 -154 94q-34 27 -59.5 58.5t-45.5 66.5q-39 72 -39 166q0 89 40 166q39 76 111 128q72 54 169 82q97 30 216 30q123 0 219 -34q98 -33 169 -93q69 -60 108 -142 q6 -14 11 -28.5t9 -30.5q6 -21 9 -41.5t5 -48.5v-2v-34l1 -113h-67q-61 0 -112 24t-85 66q-5 6 -11 17t-11.5 24.5t-11 28.5t-8.5 28q0 1 -2.5 7l-5 12t-5 11.5t-3.5 7.5q-1 3 -5 9q-6 9 -13 18t-15 17q-16 14 -34 24.5t-41 18.5t-49 12t-57 4q-57 0 -102 -14 q-43 -12 -72 -35q-28 -23 -43 -54q-14 -29 -14 -66q0 -72 73 -120q37 -25 90 -47t125 -44q120 -36 209 -81q90 -45 150 -102q61 -56 92 -128q15 -35 23 -75t8 -85q0 -95 -38 -171t-106 -126t-166 -79q-98 -27 -217 -27q-72 0 -144 12q-70 13 -137 39q-65 26 -121 65 q-55 39 -97 91q-21 27 -37 57t-28 64q-1 4 -5 14v1q-6 21 -8.5 41.5t-4.5 47.5v2v34v8zM355 1819q6 29 27 56q3 3 5 4l23 26l187 -176q23 -21 53 -21t53 21l185 176l25 -26q3 -3 3 -4q22 -27 27 -56q6 -29 -1 -57.5t-27 -51.5q-1 -1 -13 -12.5t-30.5 -28.5t-40 -37 t-41.5 -39q-29 -26 -65 -40.5t-75 -14.5t-75 14t-65 40q-20 19 -42.5 40t-41 38.5t-31 29.5t-13.5 13q-19 23 -25.5 51t-1.5 55z" />
<glyph unicode="&#x161;" horiz-adv-x="1053" d="M77 338l1 128h57q49 0 92 -18.5t76 -50.5q35 -38 49 -93q2 -10 5 -20t7 -17q15 -30 42 -48q26 -17 61 -28q34 -9 73 -9q82 0 123 32q41 30 41 80q0 23 -9 41q-8 19 -32 34q-13 9 -29.5 16.5t-37.5 15.5q-21 7 -48.5 13.5t-59.5 14.5q-42 9 -79 20t-72 24q-34 13 -64 29.5 t-56 35.5q-24 20 -44 43t-34 49q-28 50 -28 120q0 64 28 126q31 61 83 104q55 46 134 73q80 26 177 26q106 0 185 -25q41 -14 75.5 -31.5t63.5 -40.5q57 -44 88 -107q29 -59 31 -129v-136h-60q-55 0 -100.5 22t-76.5 60q-5 5 -10.5 15t-10.5 22.5t-9.5 25.5t-7.5 25 q-5 20 -16.5 38.5t-31.5 32.5q-23 17 -51 22t-70 5q-71 0 -110 -33q-40 -31 -40 -82q0 -24 11 -41q9 -18 33 -33q11 -8 26 -15t35 -14q19 -6 42 -12t50 -11q84 -16 160 -41q37 -12 68 -28t58 -35t47.5 -42.5t35.5 -50.5q31 -56 31 -135q0 -71 -32 -129q-30 -58 -89 -102 q-29 -22 -64 -38.5t-76 -29.5q-81 -24 -183 -24q-115 0 -198 32q-42 15 -78 34.5t-65 47.5q-35 34 -58 69.5t-36 68t-18 59.5t-5 45zM275 1451q6 29 27 56q3 3 5 4l23 26l187 -176q23 -21 53 -21t53 21l185 176l25 -26q3 -3 3 -4q22 -27 27 -56q6 -29 -1 -57.5t-27 -51.5 q-1 -1 -13 -12.5t-30.5 -28.5t-40 -37t-41.5 -39q-29 -26 -65 -40.5t-75 -14.5t-75 14t-65 40q-20 19 -42.5 40t-41 38.5t-31 29.5t-13.5 13q-19 23 -25.5 51t-1.5 55z" />
<glyph unicode="&#x164;" horiz-adv-x="1267" d="M40 1217v45q0 41 15.5 77t42.5 63t63 42.5t77 15.5h991v-46q0 -41 -15.5 -77t-42 -62.5t-62.5 -42t-77 -15.5h-250v-1066q0 -32 -12 -59.5t-32 -47.5t-47.5 -32t-58.5 -12t-58.5 12t-48 32t-32.5 47.5t-12 59.5v1066h-441zM337 1819q6 29 27 56q3 3 5 4l23 26l187 -176 q23 -21 53 -21t53 21l185 176l25 -26q3 -3 3 -4q22 -27 27 -56q6 -29 -1 -57.5t-27 -51.5q-1 -1 -13 -12.5t-30.5 -28.5t-40 -37t-41.5 -39q-29 -26 -65 -40.5t-75 -14.5t-75 14t-65 40q-20 19 -42.5 40t-41 38.5t-31 29.5t-13.5 13q-19 23 -25.5 51t-1.5 55z" />
<glyph unicode="&#x165;" horiz-adv-x="732" d="M46 891v66q0 25 10 48t27 40t40.5 27t49.5 10h16v332h58q42 0 79.5 -16t65.5 -43.5t44 -64.5t16 -79v-129h166v-65q0 -26 -10 -49t-27 -40t-40 -27t-49 -10h-40v-600q0 -30 6 -51q4 -9 8 -17t11 -13q11 -12 31 -16q4 -1 22.5 -2.5t39 -2t38 -1t21.5 0.5v-54 q0 -35 -14 -64.5t-37 -51.5t-54 -33.5t-65 -8.5q-25 2 -51 5t-54 8q-27 5 -48.5 19.5t-40.5 31.5q-36 35 -56 89q-11 27 -15.5 60.5t-4.5 72.5v628h-143zM636 1518q1 22 13 43q10 20 26 36q15 15 37 26q11 5 21.5 7.5t22.5 3.5q25 3 52 -5q26 -10 44 -25q10 -8 17.5 -18 t14.5 -21q12 -23 15 -49q1 -5 1 -12v-15v-14.5t-1 -16.5q0 -16 -5 -41q-2 -13 -6 -27t-11 -29q-6 -15 -12.5 -29t-13.5 -27q-13 -24 -25 -44q-12 -18 -16 -22l-11 6q-17 9 -25 29q-6 20 0 40q6 12 12 27q2 8 3.5 15.5t0.5 16.5q-4 -1 -11 -1q-4 -1 -12 -1q-30 0 -55 12 q-26 12 -43 32q-19 18 -28 47q-9 27 -5 56z" />
<glyph unicode="&#x179;" horiz-adv-x="1241" d="M66 134q0 43 23 77l699 1006h-526q-41 0 -76.5 15.5t-61.5 42t-41.5 62t-15.5 75.5v49h963q27 0 51 -10.5t42 -28.5t28.5 -42t10.5 -51q0 -20 -5.5 -39t-17.5 -35l-697 -1013h541q40 0 76 -15.5t62 -41.5t41.5 -62t15.5 -76v-47h-978q-28 0 -52.5 10.5t-42.5 28.5 t-28.5 42.5t-10.5 52.5zM585 1595l86 114q16 21 31.5 41.5t27.5 37t20 26.5l8 10q18 18 40.5 27t46.5 9.5t47 -7.5t42 -25l23 -20l-86 -114q-16 -21 -31.5 -42t-28 -37t-20 -26.5l-7.5 -10.5q-18 -18 -40.5 -27t-46.5 -9.5t-47 8t-42 25.5z" />
<glyph unicode="&#x17a;" horiz-adv-x="1042" d="M70 132q0 22 7 42.5t20 37.5l482 636h-327l-1 1q-35 1 -65 15t-53 37.5t-36 54t-13 65.5v61h1h739q26 0 49.5 -10t41 -27.5t27.5 -40.5t10 -49q0 -44 -26 -78l-487 -643h356q36 0 67.5 -13.5t55 -37t37 -55t13.5 -66.5v-61h-766q-27 0 -51 10.5t-42 28t-28.5 41.5 t-10.5 51zM479 1251q60 68 108 123q20 23 39.5 45t35 39.5t25 28.5l9.5 11q17 18 39.5 27t46 9t46.5 -8t42 -25l22 -20q-59 -69 -107 -123q-20 -23 -39.5 -45t-35 -39.5t-25 -28l-9.5 -10.5q-18 -18 -40 -27t-45.5 -9.5t-46.5 7.5t-42 25z" />
<glyph unicode="&#x17b;" horiz-adv-x="1241" d="M66 134q0 43 23 77l699 1006h-526q-41 0 -76.5 15.5t-61.5 42t-41.5 62t-15.5 75.5v49h963q27 0 51 -10.5t42 -28.5t28.5 -42t10.5 -51q0 -20 -5.5 -39t-17.5 -35l-697 -1013h541q40 0 76 -15.5t62 -41.5t41.5 -62t15.5 -76v-47h-978q-28 0 -52.5 10.5t-42.5 28.5 t-28.5 42.5t-10.5 52.5zM480 1701q0 30 10.5 55t30 43.5t46.5 28.5t61 10q69 0 108.5 -38.5t39.5 -98.5t-39.5 -98t-108.5 -38q-68 0 -108 38t-40 98z" />
<glyph unicode="&#x17c;" horiz-adv-x="1042" d="M70 132q0 22 7 42.5t20 37.5l482 636h-327l-1 1q-35 1 -65 15t-53 37.5t-36 54t-13 65.5v61h1h739q26 0 49.5 -10t41 -27.5t27.5 -40.5t10 -49q0 -44 -26 -78l-487 -643h356q36 0 67.5 -13.5t55 -37t37 -55t13.5 -66.5v-61h-766q-27 0 -51 10.5t-42 28t-28.5 41.5 t-10.5 51zM373 1391q0 30 10.5 55t30 43.5t46.5 28.5t61 10q69 0 108.5 -38.5t39.5 -98.5t-39.5 -98t-108.5 -38q-68 0 -108 38t-40 98z" />
<glyph unicode="&#x17d;" horiz-adv-x="1241" d="M66 134q0 43 23 77l699 1006h-526q-41 0 -76.5 15.5t-61.5 42t-41.5 62t-15.5 75.5v49h963q27 0 51 -10.5t42 -28.5t28.5 -42t10.5 -51q0 -20 -5.5 -39t-17.5 -35l-697 -1013h541q40 0 76 -15.5t62 -41.5t41.5 -62t15.5 -76v-47h-978q-28 0 -52.5 10.5t-42.5 28.5 t-28.5 42.5t-10.5 52.5zM337 1819q6 29 27 56q3 3 5 4l23 26l187 -176q23 -21 53 -21t53 21l185 176l25 -26q3 -3 3 -4q22 -27 27 -56q6 -29 -1 -57.5t-27 -51.5q-1 -1 -13 -12.5t-30.5 -28.5t-40 -37t-41.5 -39q-29 -26 -65 -40.5t-75 -14.5t-75 14t-65 40q-20 19 -42.5 40 t-41 38.5t-31 29.5t-13.5 13q-19 23 -25.5 51t-1.5 55z" />
<glyph unicode="&#x17e;" horiz-adv-x="1042" d="M70 132q0 22 7 42.5t20 37.5l482 636h-327l-1 1q-35 1 -65 15t-53 37.5t-36 54t-13 65.5v61h1h739q26 0 49.5 -10t41 -27.5t27.5 -40.5t10 -49q0 -44 -26 -78l-487 -643h356q36 0 67.5 -13.5t55 -37t37 -55t13.5 -66.5v-61h-766q-27 0 -51 10.5t-42 28t-28.5 41.5 t-10.5 51zM128 1528v9h247l147 -143l146 143h247v-11l-302 -281h-183z" />
<glyph unicode="&#x2000;" horiz-adv-x="964" />
<glyph unicode="&#x2001;" horiz-adv-x="1928" />
<glyph unicode="&#x2002;" horiz-adv-x="964" />
<glyph unicode="&#x2003;" horiz-adv-x="1928" />
<glyph unicode="&#x2004;" horiz-adv-x="642" />
<glyph unicode="&#x2005;" horiz-adv-x="482" />
<glyph unicode="&#x2006;" horiz-adv-x="321" />
<glyph unicode="&#x2007;" horiz-adv-x="321" />
<glyph unicode="&#x2008;" horiz-adv-x="241" />
<glyph unicode="&#x2009;" horiz-adv-x="385" />
<glyph unicode="&#x200a;" horiz-adv-x="107" />
<glyph unicode="&#x2010;" horiz-adv-x="794" d="M116 620q0 25 9.5 47t26 38.5t38 26t46.5 9.5h341q25 0 47 -9.5t38 -26t25.5 -38.5t9.5 -47t-9.5 -46.5t-25.5 -38t-38 -26t-47 -9.5h-341q-25 0 -46.5 9.5t-38 26t-26 38t-9.5 46.5z" />
<glyph unicode="&#x2011;" horiz-adv-x="794" d="M116 620q0 25 9.5 47t26 38.5t38 26t46.5 9.5h341q25 0 47 -9.5t38 -26t25.5 -38.5t9.5 -47t-9.5 -46.5t-25.5 -38t-38 -26t-47 -9.5h-341q-25 0 -46.5 9.5t-38 26t-26 38t-9.5 46.5z" />
<glyph unicode="&#x2012;" horiz-adv-x="794" d="M116 620q0 25 9.5 47t26 38.5t38 26t46.5 9.5h341q25 0 47 -9.5t38 -26t25.5 -38.5t9.5 -47t-9.5 -46.5t-25.5 -38t-38 -26t-47 -9.5h-341q-25 0 -46.5 9.5t-38 26t-26 38t-9.5 46.5z" />
<glyph unicode="&#x2013;" horiz-adv-x="1237" d="M116 620q0 25 16.5 47t46 38.5t67 26t81.5 9.5h602q44 0 82.5 -9.5t67 -26t45 -38.5t16.5 -47t-16.5 -46.5t-45 -38t-67 -26t-82.5 -9.5h-602q-44 0 -81.5 9.5t-67 26t-46 38t-16.5 46.5z" />
<glyph unicode="&#x2014;" horiz-adv-x="2261" d="M116 620q0 25 33.5 47t91.5 38.5t134 26t164 9.5h1202q88 0 165.5 -9.5t134 -26t90 -38.5t33.5 -47t-33.5 -46.5t-90 -38t-134 -26t-165.5 -9.5h-1202q-88 0 -164 9.5t-134 26t-91.5 38t-33.5 46.5z" />
<glyph unicode="&#x2018;" horiz-adv-x="479" d="M101 1241v15v14.5t1 16.5q0 16 5 41q2 13 6 27t11 29q6 15 12.5 29t13.5 27q13 24 25 44q12 18 16 22l11 -6q17 -9 25 -29q6 -20 0 -40q-6 -12 -12 -27q-2 -8 -3.5 -15.5t-0.5 -16.5q4 1 11 1q4 1 12 1q29 0 55 -12t43 -32q18 -19 28 -47q9 -27 5 -56q-1 -22 -13 -43 q-10 -20 -26 -36q-15 -15 -37 -26q-11 -5 -21.5 -7.5t-22.5 -3.5q-25 -3 -52 5q-26 10 -44 25q-10 8 -17.5 18t-14.5 21q-12 23 -15 49q-1 5 -1 12z" />
<glyph unicode="&#x2019;" horiz-adv-x="470" d="M104 1388q1 22 13 43q10 20 26 36q15 15 37 26q11 5 21.5 7.5t22.5 3.5q25 3 52 -5q26 -10 44 -25q10 -8 17.5 -18t14.5 -21q12 -23 15 -49q1 -5 1 -12v-15v-14.5t-1 -16.5q0 -16 -5 -41q-2 -13 -6 -27t-11 -29q-6 -15 -12.5 -29t-13.5 -27q-13 -24 -25 -44 q-12 -18 -16 -22l-11 6q-17 9 -25 29q-6 20 0 40q6 12 12 27q2 8 3.5 15.5t0.5 16.5q-4 -1 -11 -1q-4 -1 -12 -1q-30 0 -55 12q-26 12 -43 32q-19 18 -28 47q-9 27 -5 56z" />
<glyph unicode="&#x201a;" horiz-adv-x="629" d="M150 137q3 26 15 49t30 41t41.5 29t50.5 13q31 3 59 -6.5t50 -28t36 -44t17 -55.5q2 -13 2 -31q0 -15 -1 -35.5t-6 -46.5q-5 -30 -19 -64t-29.5 -63t-29 -50t-18.5 -25l-12 6q-21 11 -28.5 33.5t0.5 45.5q6 14 12.5 30.5t5.5 36.5q-7 -1 -13 -1.5t-14 -0.5 q-33 0 -62 13.5t-49.5 36t-31 53t-6.5 64.5z" />
<glyph unicode="&#x201c;" horiz-adv-x="831" d="M109 1241v15v14.5t1 16.5q0 16 5 41q2 13 6 27t11 29q6 15 12.5 29t13.5 27q13 24 25 44q12 18 16 22l11 -6q17 -9 25 -29q6 -20 0 -40q-6 -12 -12 -27q-2 -8 -3.5 -15.5t-0.5 -16.5q4 1 11 1q4 1 12 1q29 0 55 -12t43 -32q18 -19 28 -47q9 -27 5 -56q-1 -22 -13 -43 q-10 -20 -26 -36q-15 -15 -37 -26q-11 -5 -21.5 -7.5t-22.5 -3.5q-25 -3 -52 5q-26 10 -44 25q-10 8 -17.5 18t-14.5 21q-12 23 -15 49q-1 5 -1 12zM452 1241v15v14.5t1 16.5q0 16 5 41q2 13 6 27t11 29q6 15 12.5 29t13.5 27q13 24 25 44q12 18 16 22l11 -6q17 -9 25 -29 q6 -20 0 -40q-6 -12 -12 -27q-2 -8 -3.5 -15.5t-0.5 -16.5q4 1 11 1q4 1 12 1q29 0 55 -12t43 -32q18 -19 28 -47q9 -27 5 -56q-1 -22 -13 -43q-10 -20 -26 -36q-15 -15 -37 -26q-11 -5 -21.5 -7.5t-22.5 -3.5q-25 -3 -52 5q-26 10 -44 25q-10 8 -17.5 18t-14.5 21 q-12 23 -15 49q-1 5 -1 12z" />
<glyph unicode="&#x201d;" horiz-adv-x="837" d="M118 1388q1 22 13 43q10 20 26 36q15 15 37 26q11 5 21.5 7.5t22.5 3.5q25 3 52 -5q26 -10 44 -25q10 -8 17.5 -18t14.5 -21q12 -23 15 -49q1 -5 1 -12v-15v-14.5t-1 -16.5q0 -16 -5 -41q-2 -13 -6 -27t-11 -29q-6 -15 -12.5 -29t-13.5 -27q-13 -24 -25 -44 q-12 -18 -16 -22l-11 6q-17 9 -25 29q-6 20 0 40q6 12 12 27q2 8 3.5 15.5t0.5 16.5q-4 -1 -11 -1q-4 -1 -12 -1q-30 0 -55 12q-26 12 -43 32q-19 18 -28 47q-9 27 -5 56zM465 1388q1 22 13 43q10 20 26 36q15 15 37 26q11 5 21.5 7.5t22.5 3.5q25 3 52 -5q26 -10 44 -25 q10 -8 17.5 -18t14.5 -21q12 -23 15 -49q1 -5 1 -12v-15v-14.5t-1 -16.5q0 -16 -5 -41q-2 -13 -6 -27t-11 -29q-6 -15 -12.5 -29t-13.5 -27q-13 -24 -25 -44q-12 -18 -16 -22l-11 6q-17 9 -25 29q-6 20 0 40q6 12 12 27q2 8 3.5 15.5t0.5 16.5q-4 -1 -11 -1q-4 -1 -12 -1 q-30 0 -55 12q-26 12 -43 32q-19 18 -28 47q-9 27 -5 56z" />
<glyph unicode="&#x201e;" horiz-adv-x="959" d="M137 130q1 22 13 43q10 20 26 36q15 15 37 26q11 5 21.5 7.5t22.5 3.5q25 3 52 -5q26 -10 44 -25q10 -8 17.5 -18t14.5 -21q12 -23 15 -49q1 -5 1 -12v-15v-14.5t-1 -16.5q0 -16 -5 -41q-2 -13 -6 -27t-11 -29q-6 -15 -12.5 -29t-13.5 -27q-13 -24 -25 -44 q-12 -18 -16 -22l-11 6q-17 9 -25 29q-6 20 0 40q6 12 12 27q2 8 3.5 15.5t0.5 16.5q-4 -1 -11 -1q-4 -1 -12 -1q-30 0 -55 12q-26 12 -43 32q-19 18 -28 47q-9 27 -5 56zM484 130q1 22 13 43q10 20 26 36q15 15 37 26q11 5 21.5 7.5t22.5 3.5q25 3 52 -5q26 -10 44 -25 q10 -8 17.5 -18t14.5 -21q12 -23 15 -49q1 -5 1 -12v-15v-14.5t-1 -16.5q0 -16 -5 -41q-2 -13 -6 -27t-11 -29q-6 -15 -12.5 -29t-13.5 -27q-13 -24 -25 -44q-12 -18 -16 -22l-11 6q-17 9 -25 29q-6 20 0 40q6 12 12 27q2 8 3.5 15.5t0.5 16.5q-4 -1 -11 -1q-4 -1 -12 -1 q-30 0 -55 12q-26 12 -43 32q-19 18 -28 47q-9 27 -5 56z" />
<glyph unicode="&#x2022;" horiz-adv-x="736" d="M135 728v50q0 51 16.5 93t47.5 73t74.5 48t97.5 17q56 0 100.5 -17t75 -48t47 -73t16.5 -93v-50q0 -50 -16.5 -92t-47 -72t-74.5 -47t-99 -17t-99 17t-75 47t-47.5 72t-16.5 92z" />
<glyph unicode="&#x202f;" horiz-adv-x="385" />
<glyph unicode="&#x205f;" horiz-adv-x="482" />
<glyph unicode="&#x20ac;" />
<glyph unicode="&#x25fc;" horiz-adv-x="1085" d="M0 0v1085h1085v-1085h-1085z" />
</font>
</defs>
</svg>
